<svg width="265" height="273" viewBox="0 0 265 273" fill="none" xmlns="http://www.w3.org/2000/svg">
<foreignObject x="-8.16431" y="22.6577" width="249.419" height="227.976"><div xmlns="http://www.w3.org/1999/xhtml" style="backdrop-filter:blur(4.5px);clip-path:url(#bgblur_0_18_6_clip_path);height:100%;width:100%"></div></foreignObject><g filter="url(#filter0_ii_18_6)" data-figma-bg-blur-radius="9">
<path d="M143.003 233.506C92.4751 255.11 32.8767 232.162 9.88592 182.25V182.25C-13.1049 132.338 9.21794 74.3634 59.7454 52.7593L90.0881 39.7856C140.616 18.1815 200.214 41.1294 223.205 91.0411V91.0411C246.196 140.953 223.873 198.928 173.345 220.532L143.003 233.506Z" fill="url(#paint0_radial_18_6)" fill-opacity="0.3"/>
<path d="M143.003 233.506C92.4751 255.11 32.8767 232.162 9.88592 182.25V182.25C-13.1049 132.338 9.21794 74.3634 59.7454 52.7593L90.0881 39.7856C140.616 18.1815 200.214 41.1294 223.205 91.0411V91.0411C246.196 140.953 223.873 198.928 173.345 220.532L143.003 233.506Z" fill="url(#paint1_linear_18_6)" fill-opacity="0.98"/>
</g>
<path d="M78.9082 129.061C80.7832 129.447 82.4707 129.6 83.9707 129.518C85.4824 129.436 86.7891 129.184 87.8906 128.762C88.9922 128.34 89.877 127.777 90.5449 127.074C91.2246 126.359 91.6641 125.562 91.8633 124.684C91.6641 124.836 91.4004 125 91.0723 125.176C90.7559 125.34 90.3574 125.492 89.877 125.633C89.4082 125.773 88.8574 125.891 88.2246 125.984C87.6035 126.078 86.8887 126.125 86.0801 126.125C83.8535 126.125 81.9316 125.896 80.3145 125.439C78.709 124.971 77.3848 124.332 76.3418 123.523C75.3105 122.703 74.543 121.748 74.0391 120.658C73.5469 119.557 73.3008 118.373 73.3008 117.107C73.3008 115.842 73.5527 114.664 74.0566 113.574C74.5723 112.473 75.3574 111.518 76.4121 110.709C77.4668 109.889 78.7969 109.25 80.4023 108.793C82.0078 108.324 83.9004 108.09 86.0801 108.09C88.166 108.09 89.9766 108.33 91.5117 108.811C93.0586 109.291 94.3477 109.941 95.3789 110.762C96.4219 111.582 97.2246 112.537 97.7871 113.627C98.3613 114.717 98.7188 115.871 98.8594 117.09C99.1406 119.609 99.0762 121.848 98.666 123.805C98.2676 125.75 97.5938 127.432 96.6445 128.85C95.6953 130.256 94.5059 131.41 93.0762 132.312C91.6582 133.215 90.0645 133.877 88.2949 134.299C86.5371 134.732 84.6445 134.932 82.6172 134.896C80.6016 134.873 78.5215 134.639 76.377 134.193L78.9082 129.061ZM79.9453 117.107C79.9453 118.139 80.4668 118.947 81.5098 119.533C82.5527 120.119 84.0762 120.412 86.0801 120.412C88.0957 120.412 89.6191 120.119 90.6504 119.533C91.6934 118.947 92.2148 118.139 92.2148 117.107C92.2148 116.076 91.6934 115.268 90.6504 114.682C89.6191 114.096 88.0957 113.803 86.0801 113.803C84.0762 113.803 82.5527 114.096 81.5098 114.682C80.4668 115.268 79.9453 116.076 79.9453 117.107ZM101.918 108.793H124.963V113.205L113.238 134H105.592L116.578 114.506H101.918V108.793Z" fill="#252C3F"/>
<path d="M150.1 108.793H157.57L139.254 134H131.783L150.1 108.793ZM142.541 115.016C142.541 115.953 142.371 116.838 142.031 117.67C141.691 118.49 141.211 119.205 140.59 119.814C139.969 120.424 139.219 120.904 138.34 121.256C137.473 121.607 136.506 121.783 135.439 121.783C134.373 121.783 133.4 121.607 132.521 121.256C131.654 120.904 130.904 120.424 130.271 119.814C129.65 119.205 129.17 118.49 128.83 117.67C128.49 116.838 128.32 115.953 128.32 115.016C128.32 114.078 128.49 113.199 128.83 112.379C129.17 111.559 129.65 110.844 130.271 110.234C130.904 109.625 131.654 109.145 132.521 108.793C133.4 108.441 134.373 108.266 135.439 108.266C136.506 108.266 137.473 108.441 138.34 108.793C139.219 109.145 139.969 109.625 140.59 110.234C141.211 110.844 141.691 111.559 142.031 112.379C142.371 113.199 142.541 114.078 142.541 115.016ZM137.566 115.016C137.566 114.523 137.391 114.096 137.039 113.732C136.699 113.357 136.166 113.17 135.439 113.17C134.713 113.17 134.174 113.357 133.822 113.732C133.471 114.096 133.295 114.523 133.295 115.016C133.295 115.262 133.336 115.496 133.418 115.719C133.512 115.941 133.646 116.141 133.822 116.316C133.998 116.492 134.221 116.633 134.49 116.738C134.76 116.832 135.076 116.879 135.439 116.879C136.154 116.879 136.688 116.691 137.039 116.316C137.391 115.941 137.566 115.508 137.566 115.016ZM146.812 127.777C146.812 126.84 146.982 125.961 147.322 125.141C147.662 124.309 148.143 123.588 148.764 122.979C149.385 122.369 150.129 121.889 150.996 121.537C151.875 121.186 152.848 121.01 153.914 121.01C154.98 121.01 155.947 121.186 156.814 121.537C157.693 121.889 158.443 122.369 159.064 122.979C159.697 123.588 160.184 124.309 160.523 125.141C160.863 125.961 161.033 126.84 161.033 127.777C161.033 128.715 160.863 129.594 160.523 130.414C160.184 131.234 159.697 131.949 159.064 132.559C158.443 133.168 157.693 133.648 156.814 134C155.947 134.352 154.98 134.527 153.914 134.527C152.848 134.527 151.875 134.352 150.996 134C150.129 133.648 149.385 133.168 148.764 132.559C148.143 131.949 147.662 131.234 147.322 130.414C146.982 129.594 146.812 128.715 146.812 127.777ZM151.787 127.777C151.787 128.27 151.957 128.703 152.297 129.078C152.648 129.441 153.188 129.623 153.914 129.623C154.641 129.623 155.18 129.441 155.531 129.078C155.883 128.703 156.059 128.27 156.059 127.777C156.059 127.285 155.877 126.852 155.514 126.477C155.162 126.102 154.629 125.914 153.914 125.914C153.551 125.914 153.234 125.967 152.965 126.072C152.707 126.166 152.49 126.301 152.314 126.477C152.139 126.652 152.004 126.852 151.91 127.074C151.828 127.297 151.787 127.531 151.787 127.777Z" fill="#E598BA"/>
<path d="M19.0922 150.296C19.7855 150.296 20.4042 150.435 20.9482 150.712C21.5029 150.979 21.9295 151.363 22.2282 151.864C22.5375 152.355 22.6922 152.915 22.6922 153.544C22.6922 154.248 22.5109 154.877 22.1482 155.432C21.7962 155.976 21.3055 156.403 20.6762 156.712C20.0575 157.011 19.3642 157.16 18.5962 157.16C17.7749 157.16 17.0015 157.005 16.2762 156.696C15.5509 156.387 14.9482 155.976 14.4682 155.464L15.0442 154.696C15.4495 155.123 15.9775 155.475 16.6282 155.752C17.2895 156.029 17.9242 156.168 18.5322 156.168C19.0869 156.168 19.5882 156.056 20.0362 155.832C20.4842 155.608 20.8309 155.299 21.0762 154.904C21.3322 154.499 21.4602 154.045 21.4602 153.544C21.4602 152.872 21.2255 152.312 20.7562 151.864C20.2869 151.416 19.6789 151.187 18.9322 151.176C18.6655 151.165 18.3242 151.171 17.9082 151.192C17.5029 151.213 17.1722 151.245 16.9162 151.288L16.8842 150.632L20.5162 146.808H15.1562V145.8H22.1002L22.1802 146.6L18.3882 150.36C18.6122 150.317 18.8469 150.296 19.0922 150.296ZM28.0484 148.2C29.2644 148.2 30.1818 148.499 30.8004 149.096C31.4298 149.683 31.7444 150.525 31.7444 151.624V157H30.5444V155.368C30.2671 155.848 29.8351 156.269 29.2484 156.632C28.6724 156.984 27.9951 157.16 27.2164 157.16C26.2991 157.16 25.5684 156.915 25.0244 156.424C24.4911 155.933 24.2244 155.293 24.2244 154.504C24.2244 153.672 24.5071 153.005 25.0724 152.504C25.6378 152.003 26.4858 151.752 27.6164 151.752C28.4698 151.752 29.4458 151.811 30.5444 151.928V151.64C30.5444 150.872 30.3204 150.291 29.8724 149.896C29.4351 149.491 28.7898 149.288 27.9364 149.288C27.4778 149.288 27.0138 149.373 26.5444 149.544C26.0751 149.704 25.6538 149.939 25.2804 150.248L24.6724 149.368C25.1418 148.973 25.6698 148.68 26.2564 148.488C26.8431 148.296 27.4404 148.2 28.0484 148.2ZM27.5844 156.056C28.1391 156.056 28.6404 155.917 29.0884 155.64C29.5471 155.363 29.9044 155.005 30.1604 154.568C30.4164 154.12 30.5444 153.667 30.5444 153.208V152.952C29.7338 152.824 28.8484 152.76 27.8884 152.76C26.2138 152.76 25.3764 153.32 25.3764 154.44C25.3764 154.963 25.5684 155.363 25.9524 155.64C26.3364 155.917 26.8804 156.056 27.5844 156.056ZM41.2657 156.04H42.0497V158.264H40.8177V157H34.5297V158.264H33.2977V156.04H33.7617C33.9217 156.04 34.0817 155.949 34.2417 155.768C34.4017 155.587 34.535 155.309 34.6417 154.936C34.759 154.563 34.8284 154.115 34.8497 153.592L35.0097 148.344H41.2657V156.04ZM40.0817 149.304H36.1617L36.0337 153.48C36.0017 154.611 35.751 155.464 35.2817 156.04H40.0817V149.304ZM48.6967 157.16C47.822 157.16 47.038 156.968 46.3447 156.584C45.662 156.2 45.1234 155.667 44.7287 154.984C44.3447 154.301 44.1527 153.528 44.1527 152.664C44.1527 151.811 44.3447 151.048 44.7287 150.376C45.1234 149.693 45.6674 149.16 46.3607 148.776C47.054 148.392 47.8327 148.2 48.6967 148.2C49.5714 148.2 50.3554 148.392 51.0487 148.776C51.742 149.16 52.2807 149.688 52.6647 150.36C53.0594 151.032 53.2567 151.795 53.2567 152.648C53.2567 153.512 53.0594 154.285 52.6647 154.968C52.2807 155.651 51.742 156.189 51.0487 156.584C50.3554 156.968 49.5714 157.16 48.6967 157.16ZM48.7127 156.056C49.3527 156.056 49.9234 155.912 50.4247 155.624C50.9367 155.336 51.3367 154.936 51.6247 154.424C51.9127 153.912 52.0567 153.325 52.0567 152.664C52.0567 152.003 51.9127 151.416 51.6247 150.904C51.3367 150.392 50.9367 149.997 50.4247 149.72C49.9127 149.432 49.3367 149.288 48.6967 149.288C48.0567 149.288 47.4807 149.432 46.9687 149.72C46.4674 149.997 46.0727 150.392 45.7847 150.904C45.4967 151.416 45.3527 152.003 45.3527 152.664C45.3527 153.325 45.4967 153.912 45.7847 154.424C46.0727 154.936 46.4727 155.336 46.9847 155.624C47.4967 155.912 48.0727 156.056 48.7127 156.056ZM60.8056 152.552C61.4776 152.659 62.0002 152.904 62.3736 153.288C62.7469 153.672 62.9336 154.147 62.9336 154.712C62.9336 155.427 62.6456 155.987 62.0696 156.392C61.5042 156.797 60.7256 157 59.7336 157H55.4456V148.344H59.5416C60.4589 148.344 61.1789 148.541 61.7016 148.936C62.2349 149.32 62.5016 149.848 62.5016 150.52C62.5016 151.021 62.3522 151.448 62.0536 151.8C61.7549 152.152 61.3389 152.403 60.8056 152.552ZM56.6296 149.432V152.104H59.5256C60.0909 152.104 60.5282 151.987 60.8376 151.752C61.1576 151.517 61.3176 151.181 61.3176 150.744C61.3176 150.339 61.1576 150.019 60.8376 149.784C60.5176 149.549 60.0429 149.432 59.4136 149.432H56.6296ZM59.6856 155.912C60.3362 155.912 60.8322 155.795 61.1736 155.56C61.5256 155.325 61.7016 154.989 61.7016 154.552C61.7016 154.136 61.5256 153.811 61.1736 153.576C60.8322 153.341 60.3629 153.224 59.7656 153.224H56.6296V155.912H59.6856ZM69.1811 157.16C68.3064 157.16 67.5224 156.968 66.8291 156.584C66.1464 156.2 65.6077 155.667 65.2131 154.984C64.8291 154.301 64.6371 153.528 64.6371 152.664C64.6371 151.811 64.8291 151.048 65.2131 150.376C65.6077 149.693 66.1517 149.16 66.8451 148.776C67.5384 148.392 68.3171 148.2 69.1811 148.2C70.0557 148.2 70.8397 148.392 71.5331 148.776C72.2264 149.16 72.7651 149.688 73.1491 150.36C73.5437 151.032 73.7411 151.795 73.7411 152.648C73.7411 153.512 73.5437 154.285 73.1491 154.968C72.7651 155.651 72.2264 156.189 71.5331 156.584C70.8397 156.968 70.0557 157.16 69.1811 157.16ZM69.1971 156.056C69.8371 156.056 70.4077 155.912 70.9091 155.624C71.4211 155.336 71.8211 154.936 72.1091 154.424C72.3971 153.912 72.5411 153.325 72.5411 152.664C72.5411 152.003 72.3971 151.416 72.1091 150.904C71.8211 150.392 71.4211 149.997 70.9091 149.72C70.3971 149.432 69.8211 149.288 69.1811 149.288C68.5411 149.288 67.9651 149.432 67.4531 149.72C66.9517 149.997 66.5571 150.392 66.2691 150.904C65.9811 151.416 65.8371 152.003 65.8371 152.664C65.8371 153.325 65.9811 153.912 66.2691 154.424C66.5571 154.936 66.9571 155.336 67.4691 155.624C67.9811 155.912 68.5571 156.056 69.1971 156.056ZM82.8099 157H81.6099V149.304H77.4819L77.3859 153.72C77.3753 154.584 77.2739 155.256 77.0819 155.736C76.9006 156.205 76.6339 156.536 76.2819 156.728C75.9406 156.909 75.4873 157 74.9219 157V156.104C75.3593 156.093 75.6739 155.901 75.8659 155.528C76.0686 155.155 76.1753 154.52 76.1859 153.624L76.3139 148.344H82.8099V157ZM86.2124 153.128C86.2871 154.003 86.6338 154.712 87.2524 155.256C87.8818 155.789 88.6658 156.056 89.6044 156.056C90.6818 156.056 91.5351 155.704 92.1644 155L92.9484 155.704C92.5218 156.163 92.0204 156.52 91.4444 156.776C90.8791 157.021 90.2444 157.144 89.5404 157.144C88.6658 157.144 87.8818 156.952 87.1884 156.568C86.5058 156.184 85.9671 155.656 85.5724 154.984C85.1884 154.301 84.9964 153.528 84.9964 152.664C84.9964 151.811 85.1778 151.048 85.5404 150.376C85.9138 149.693 86.4364 149.16 87.1084 148.776C87.7804 148.392 88.5484 148.2 89.4124 148.2C90.1911 148.2 90.8844 148.376 91.4924 148.728C92.1004 149.08 92.5751 149.576 92.9164 150.216C93.2578 150.856 93.4284 151.587 93.4284 152.408C93.4284 152.6 93.4071 152.84 93.3644 153.128H86.2124ZM89.4124 149.288C88.5378 149.288 87.8124 149.544 87.2364 150.056C86.6711 150.568 86.3351 151.245 86.2284 152.088H92.2604C92.1751 151.192 91.8764 150.504 91.3644 150.024C90.8631 149.533 90.2124 149.288 89.4124 149.288ZM101.943 152.056V148.344H103.143V157H101.943V153.128H96.5671V157H95.3831V148.344H96.5671V152.056H101.943ZM113.564 148.344V157H112.364V150.232L106.636 157H105.676V148.344H106.876V155.08L112.572 148.344H113.564ZM120.354 152.568L123.89 157H122.498L119.618 153.416L116.738 157H115.378L118.914 152.584L115.522 148.344H116.946L119.634 151.768L122.322 148.344H123.714L120.354 152.568ZM134.494 157.16C133.64 157.16 132.867 156.968 132.174 156.584C131.48 156.2 130.936 155.672 130.542 155C130.147 154.317 129.95 153.544 129.95 152.68C129.95 151.816 130.147 151.048 130.542 150.376C130.936 149.693 131.48 149.16 132.174 148.776C132.867 148.392 133.64 148.2 134.494 148.2C135.134 148.2 135.736 148.317 136.302 148.552C136.878 148.776 137.379 149.117 137.806 149.576L136.942 150.312C136.6 149.949 136.227 149.688 135.822 149.528C135.416 149.368 134.968 149.288 134.478 149.288C133.848 149.288 133.278 149.427 132.766 149.704C132.264 149.981 131.87 150.376 131.582 150.888C131.294 151.4 131.15 151.992 131.15 152.664C131.15 153.347 131.294 153.944 131.582 154.456C131.87 154.968 132.27 155.363 132.782 155.64C133.294 155.917 133.87 156.056 134.51 156.056C135 156.056 135.443 155.976 135.838 155.816C136.232 155.645 136.606 155.379 136.958 155.016L137.806 155.736C137.379 156.205 136.878 156.563 136.302 156.808C135.736 157.043 135.134 157.16 134.494 157.16ZM138.554 148.344H145.962V149.448H142.858V157H141.658V149.448H138.554V148.344ZM154.38 148.344H155.692L151.916 157L151.564 157.816C151.244 158.552 150.86 159.08 150.412 159.4C149.975 159.731 149.41 159.896 148.716 159.896C148.418 159.896 148.108 159.848 147.788 159.752C147.479 159.667 147.223 159.56 147.02 159.432L147.404 158.552C147.81 158.765 148.231 158.872 148.668 158.872C149.084 158.872 149.42 158.765 149.676 158.552C149.932 158.349 150.172 158.008 150.396 157.528L150.636 156.984L146.86 148.344H148.172L151.276 155.624L154.38 148.344ZM163.906 156.04H164.69V158.264H163.458V157H157.17V158.264H155.938V156.04H156.402C156.562 156.04 156.722 155.949 156.882 155.768C157.042 155.587 157.176 155.309 157.282 154.936C157.4 154.563 157.469 154.115 157.49 153.592L157.65 148.344H163.906V156.04ZM162.722 149.304H158.802L158.674 153.48C158.642 154.611 158.392 155.464 157.922 156.04H162.722V149.304ZM168.009 153.128C168.084 154.003 168.431 154.712 169.049 155.256C169.679 155.789 170.463 156.056 171.401 156.056C172.479 156.056 173.332 155.704 173.961 155L174.745 155.704C174.319 156.163 173.817 156.52 173.241 156.776C172.676 157.021 172.041 157.144 171.337 157.144C170.463 157.144 169.679 156.952 168.985 156.568C168.303 156.184 167.764 155.656 167.369 154.984C166.985 154.301 166.793 153.528 166.793 152.664C166.793 151.811 166.975 151.048 167.337 150.376C167.711 149.693 168.233 149.16 168.905 148.776C169.577 148.392 170.345 148.2 171.209 148.2C171.988 148.2 172.681 148.376 173.289 148.728C173.897 149.08 174.372 149.576 174.713 150.216C175.055 150.856 175.225 151.587 175.225 152.408C175.225 152.6 175.204 152.84 175.161 153.128H168.009ZM171.209 149.288C170.335 149.288 169.609 149.544 169.033 150.056C168.468 150.568 168.132 151.245 168.025 152.088H174.057C173.972 151.192 173.673 150.504 173.161 150.024C172.66 149.533 172.009 149.288 171.209 149.288ZM183.74 152.056V148.344H184.94V157H183.74V153.128H178.364V157H177.18V148.344H178.364V152.056H183.74ZM186.913 148.344H194.321V149.448H191.217V157H190.017V149.448H186.913V148.344ZM197.473 157H196.289V148.344H197.473V157ZM197.521 147.128H196.257V145.368H197.521V147.128ZM205.524 152.552C206.196 152.659 206.719 152.904 207.092 153.288C207.466 153.672 207.652 154.147 207.652 154.712C207.652 155.427 207.364 155.987 206.788 156.392C206.223 156.797 205.444 157 204.452 157H200.164V148.344H204.26C205.178 148.344 205.898 148.541 206.42 148.936C206.954 149.32 207.22 149.848 207.22 150.52C207.22 151.021 207.071 151.448 206.772 151.8C206.474 152.152 206.058 152.403 205.524 152.552ZM201.348 149.432V152.104H204.244C204.81 152.104 205.247 151.987 205.556 151.752C205.876 151.517 206.036 151.181 206.036 150.744C206.036 150.339 205.876 150.019 205.556 149.784C205.236 149.549 204.762 149.432 204.132 149.432H201.348ZM204.404 155.912C205.055 155.912 205.551 155.795 205.892 155.56C206.244 155.325 206.42 154.989 206.42 154.552C206.42 154.136 206.244 153.811 205.892 153.576C205.551 153.341 205.082 153.224 204.484 153.224H201.348V155.912H204.404Z" fill="#252C3F"/>
<defs>
<filter id="filter0_ii_18_6" x="-8.16431" y="22.6577" width="249.419" height="227.976" filterUnits="userSpaceOnUse" color-interpolation-filters="sRGB">
<feFlood flood-opacity="0" result="BackgroundImageFix"/>
<feBlend mode="normal" in="SourceGraphic" in2="BackgroundImageFix" result="shape"/>
<feColorMatrix in="SourceAlpha" type="matrix" values="0 0 0 0 0 0 0 0 0 0 0 0 0 0 0 0 0 0 127 0" result="hardAlpha"/>
<feOffset/>
<feGaussianBlur stdDeviation="50"/>
<feComposite in2="hardAlpha" operator="arithmetic" k2="-1" k3="1"/>
<feColorMatrix type="matrix" values="0 0 0 0 0.968627 0 0 0 0 0.705882 0 0 0 0 0.819608 0 0 0 1 0"/>
<feBlend mode="normal" in2="shape" result="effect1_innerShadow_18_6"/>
<feColorMatrix in="SourceAlpha" type="matrix" values="0 0 0 0 0 0 0 0 0 0 0 0 0 0 0 0 0 0 127 0" result="hardAlpha"/>
<feOffset dy="4"/>
<feGaussianBlur stdDeviation="65"/>
<feComposite in2="hardAlpha" operator="arithmetic" k2="-1" k3="1"/>
<feColorMatrix type="matrix" values="0 0 0 0 0.968627 0 0 0 0 0.705882 0 0 0 0 0.819608 0 0 0 1 0"/>
<feBlend mode="normal" in2="effect1_innerShadow_18_6" result="effect2_innerShadow_18_6"/>
</filter>
<clipPath id="bgblur_0_18_6_clip_path" transform="translate(8.16431 -22.6577)"><path d="M143.003 233.506C92.4751 255.11 32.8767 232.162 9.88592 182.25V182.25C-13.1049 132.338 9.21794 74.3634 59.7454 52.7593L90.0881 39.7856C140.616 18.1815 200.214 41.1294 223.205 91.0411V91.0411C246.196 140.953 223.873 198.928 173.345 220.532L143.003 233.506Z"/>
</clipPath><radialGradient id="paint0_radial_18_6" cx="0" cy="0" r="1" gradientUnits="userSpaceOnUse" gradientTransform="translate(117.397 136.281) rotate(156.85) scale(219.68 186.868)">
<stop stop-color="#B1D4E0"/>
<stop offset="1" stop-color="#FFC5A1" stop-opacity="0"/>
</radialGradient>
<linearGradient id="paint1_linear_18_6" x1="87.5917" y1="35.2942" x2="101.706" y2="249.987" gradientUnits="userSpaceOnUse">
<stop stop-color="#FFFDC7" stop-opacity="0"/>
<stop offset="0.369389" stop-color="#FFCB9D"/>
<stop offset="0.828125" stop-color="#FFFEE1" stop-opacity="0"/>
</linearGradient>
</defs>
</svg>
