<svg width="629" height="606" viewBox="0 0 629 606" fill="none" xmlns="http://www.w3.org/2000/svg">
<foreignObject x="32.1218" y="125.934" width="573.437" height="366.908"><div xmlns="http://www.w3.org/1999/xhtml" style="backdrop-filter:blur(4.5px);clip-path:url(#bgblur_0_18_5_clip_path);height:100%;width:100%"></div></foreignObject><g filter="url(#filter0_ii_18_5)" data-figma-bg-blur-radius="9">
<path d="M129.017 474.163C57.7629 446.108 22.744 365.601 50.7997 294.348L56.3961 280.134C84.4518 208.881 164.958 173.862 236.212 201.917C307.466 229.973 342.485 310.479 314.429 381.733L308.833 395.946C280.777 467.2 200.271 502.219 129.017 474.163ZM434.21 381.752C378.988 360.009 351.848 297.616 373.592 242.395L389.082 203.052C410.826 147.83 473.218 120.691 528.44 142.434C583.662 164.177 610.801 226.57 589.058 281.791L573.567 321.134C551.824 376.355 489.432 403.495 434.21 381.752Z" fill="url(#paint0_radial_18_5)" fill-opacity="0.3"/>
<path d="M129.017 474.163C57.7629 446.108 22.744 365.601 50.7997 294.348L56.3961 280.134C84.4518 208.881 164.958 173.862 236.212 201.917C307.466 229.973 342.485 310.479 314.429 381.733L308.833 395.946C280.777 467.2 200.271 502.219 129.017 474.163ZM434.21 381.752C378.988 360.009 351.848 297.616 373.592 242.395L389.082 203.052C410.826 147.83 473.218 120.691 528.44 142.434C583.662 164.177 610.801 226.57 589.058 281.791L573.567 321.134C551.824 376.355 489.432 403.495 434.21 381.752Z" fill="url(#paint1_linear_18_5)" fill-opacity="0.98"/>
</g>
<path d="M431.551 279.736C432.98 279.736 434.1 280.066 434.911 280.728C435.721 281.389 436.127 282.301 436.127 283.464C436.127 284.648 435.716 285.57 434.895 286.232C434.073 286.893 432.948 287.224 431.519 287.224H428.607V290.936H427.375V279.736H431.551ZM431.503 286.104C432.58 286.104 433.412 285.88 433.999 285.432C434.596 284.973 434.895 284.312 434.895 283.448C434.895 282.605 434.601 281.96 434.015 281.512C433.428 281.064 432.596 280.84 431.519 280.84H428.607V286.104H431.503ZM439.272 290.936H438.088V282.28H439.272V290.936ZM439.32 281.064H438.056V279.304H439.32V281.064ZM447.323 286.488C447.995 286.594 448.518 286.84 448.891 287.224C449.264 287.608 449.451 288.082 449.451 288.648C449.451 289.362 449.163 289.922 448.587 290.328C448.022 290.733 447.243 290.936 446.251 290.936H441.963V282.28H446.059C446.976 282.28 447.696 282.477 448.219 282.872C448.752 283.256 449.019 283.784 449.019 284.456C449.019 284.957 448.87 285.384 448.571 285.736C448.272 286.088 447.856 286.338 447.323 286.488ZM443.147 283.368V286.04H446.043C446.608 286.04 447.046 285.922 447.355 285.688C447.675 285.453 447.835 285.117 447.835 284.68C447.835 284.274 447.675 283.954 447.355 283.72C447.035 283.485 446.56 283.368 445.931 283.368H443.147ZM446.203 289.848C446.854 289.848 447.35 289.73 447.691 289.496C448.043 289.261 448.219 288.925 448.219 288.488C448.219 288.072 448.043 287.746 447.691 287.512C447.35 287.277 446.88 287.16 446.283 287.16H443.147V289.848H446.203ZM452.371 287.064C452.445 287.938 452.792 288.648 453.411 289.192C454.04 289.725 454.824 289.992 455.763 289.992C456.84 289.992 457.693 289.64 458.323 288.936L459.107 289.64C458.68 290.098 458.179 290.456 457.603 290.712C457.037 290.957 456.403 291.08 455.699 291.08C454.824 291.08 454.04 290.888 453.347 290.504C452.664 290.12 452.125 289.592 451.731 288.92C451.347 288.237 451.155 287.464 451.155 286.6C451.155 285.746 451.336 284.984 451.699 284.312C452.072 283.629 452.595 283.096 453.267 282.712C453.939 282.328 454.707 282.136 455.571 282.136C456.349 282.136 457.043 282.312 457.651 282.664C458.259 283.016 458.733 283.512 459.075 284.152C459.416 284.792 459.587 285.522 459.587 286.344C459.587 286.536 459.565 286.776 459.523 287.064H452.371ZM455.571 283.224C454.696 283.224 453.971 283.48 453.395 283.992C452.829 284.504 452.493 285.181 452.387 286.024H458.419C458.333 285.128 458.035 284.44 457.523 283.96C457.021 283.469 456.371 283.224 455.571 283.224ZM468.101 285.992V282.28H469.301V290.936H468.101V287.064H462.725V290.936H461.541V282.28H462.725V285.992H468.101ZM475.418 285.048C476.602 285.048 477.53 285.309 478.202 285.832C478.885 286.354 479.226 287.08 479.226 288.008C479.226 288.914 478.89 289.629 478.218 290.152C477.546 290.674 476.624 290.936 475.45 290.936H471.994V282.28H473.178V285.048H475.418ZM475.418 289.96C476.229 289.96 476.864 289.789 477.322 289.448C477.781 289.106 478.01 288.626 478.01 288.008C478.01 287.378 477.781 286.893 477.322 286.552C476.864 286.2 476.224 286.024 475.402 286.024H473.178V289.96H475.418ZM492.695 282.28H494.007L490.231 290.936L489.879 291.752C489.559 292.488 489.175 293.016 488.727 293.336C488.289 293.666 487.724 293.832 487.031 293.832C486.732 293.832 486.423 293.784 486.103 293.688C485.793 293.602 485.537 293.496 485.335 293.368L485.719 292.488C486.124 292.701 486.545 292.808 486.983 292.808C487.399 292.808 487.735 292.701 487.991 292.488C488.247 292.285 488.487 291.944 488.711 291.464L488.951 290.92L485.175 282.28H486.487L489.591 289.56L492.695 282.28ZM498.996 291.096C498.142 291.096 497.369 290.904 496.676 290.52C495.982 290.136 495.438 289.608 495.044 288.936C494.649 288.253 494.452 287.48 494.452 286.616C494.452 285.752 494.649 284.984 495.044 284.312C495.438 283.629 495.982 283.096 496.676 282.712C497.369 282.328 498.142 282.136 498.996 282.136C499.636 282.136 500.238 282.253 500.804 282.488C501.38 282.712 501.881 283.053 502.308 283.512L501.444 284.248C501.102 283.885 500.729 283.624 500.324 283.464C499.918 283.304 499.47 283.224 498.98 283.224C498.35 283.224 497.78 283.362 497.268 283.64C496.766 283.917 496.372 284.312 496.084 284.824C495.796 285.336 495.652 285.928 495.652 286.6C495.652 287.282 495.796 287.88 496.084 288.392C496.372 288.904 496.772 289.298 497.284 289.576C497.796 289.853 498.372 289.992 499.012 289.992C499.502 289.992 499.945 289.912 500.34 289.752C500.734 289.581 501.108 289.314 501.46 288.952L502.308 289.672C501.881 290.141 501.38 290.498 500.804 290.744C500.238 290.978 499.636 291.096 498.996 291.096ZM511.942 282.28V290.936H510.742V283.24H505.366V290.936H504.182V282.28H511.942ZM515.819 290.936H514.635V282.28H515.819V290.936ZM515.867 281.064H514.603V279.304H515.867V281.064ZM522.606 286.504L526.142 290.936H524.75L521.87 287.352L518.99 290.936H517.63L521.166 286.52L517.774 282.28H519.198L521.886 285.704L524.574 282.28H525.966L522.606 286.504ZM534.148 282.28H535.46L531.684 290.936L531.332 291.752C531.012 292.488 530.628 293.016 530.18 293.336C529.742 293.666 529.177 293.832 528.484 293.832C528.185 293.832 527.876 293.784 527.556 293.688C527.246 293.602 526.99 293.496 526.788 293.368L527.172 292.488C527.577 292.701 527.998 292.808 528.436 292.808C528.852 292.808 529.188 292.701 529.444 292.488C529.7 292.285 529.94 291.944 530.164 291.464L530.404 290.92L526.628 282.28H527.94L531.044 289.56L534.148 282.28Z" fill="#252C3F"/>
<path d="M421.484 219.391H452.211V225.273L436.578 253H426.383L441.031 227.008H421.484V219.391ZM473.586 253.938C470.57 253.938 467.898 253.523 465.57 252.695C463.242 251.852 461.281 250.656 459.688 249.109C458.094 247.562 456.883 245.703 456.055 243.531C455.227 241.344 454.812 238.898 454.812 236.195C454.812 233.508 455.227 231.07 456.055 228.883C456.883 226.695 458.094 224.828 459.688 223.281C461.281 221.734 463.242 220.547 465.57 219.719C467.898 218.875 470.57 218.453 473.586 218.453C476.602 218.453 479.273 218.875 481.602 219.719C483.93 220.547 485.891 221.734 487.484 223.281C489.078 224.828 490.289 226.695 491.117 228.883C491.945 231.07 492.359 233.508 492.359 236.195C492.359 238.898 491.945 241.344 491.117 243.531C490.289 245.703 489.078 247.562 487.484 249.109C485.891 250.656 483.93 251.852 481.602 252.695C479.273 253.523 476.602 253.938 473.586 253.938ZM473.586 246.32C476.992 246.32 479.492 245.477 481.086 243.789C482.695 242.086 483.5 239.555 483.5 236.195C483.5 232.852 482.695 230.328 481.086 228.625C479.492 226.922 476.992 226.07 473.586 226.07C470.18 226.07 467.672 226.922 466.062 228.625C464.469 230.328 463.672 232.852 463.672 236.195C463.672 239.555 464.469 242.086 466.062 243.789C467.672 245.477 470.18 246.32 473.586 246.32Z" fill="#252C3F"/>
<path d="M525.383 219.391H535.344L510.922 253H500.961L525.383 219.391ZM515.305 227.688C515.305 228.938 515.078 230.117 514.625 231.227C514.172 232.32 513.531 233.273 512.703 234.086C511.875 234.898 510.875 235.539 509.703 236.008C508.547 236.477 507.258 236.711 505.836 236.711C504.414 236.711 503.117 236.477 501.945 236.008C500.789 235.539 499.789 234.898 498.945 234.086C498.117 233.273 497.477 232.32 497.023 231.227C496.57 230.117 496.344 228.938 496.344 227.688C496.344 226.438 496.57 225.266 497.023 224.172C497.477 223.078 498.117 222.125 498.945 221.312C499.789 220.5 500.789 219.859 501.945 219.391C503.117 218.922 504.414 218.688 505.836 218.688C507.258 218.688 508.547 218.922 509.703 219.391C510.875 219.859 511.875 220.5 512.703 221.312C513.531 222.125 514.172 223.078 514.625 224.172C515.078 225.266 515.305 226.438 515.305 227.688ZM508.672 227.688C508.672 227.031 508.438 226.461 507.969 225.977C507.516 225.477 506.805 225.227 505.836 225.227C504.867 225.227 504.148 225.477 503.68 225.977C503.211 226.461 502.977 227.031 502.977 227.688C502.977 228.016 503.031 228.328 503.141 228.625C503.266 228.922 503.445 229.188 503.68 229.422C503.914 229.656 504.211 229.844 504.57 229.984C504.93 230.109 505.352 230.172 505.836 230.172C506.789 230.172 507.5 229.922 507.969 229.422C508.438 228.922 508.672 228.344 508.672 227.688ZM521 244.703C521 243.453 521.227 242.281 521.68 241.188C522.133 240.078 522.773 239.117 523.602 238.305C524.43 237.492 525.422 236.852 526.578 236.383C527.75 235.914 529.047 235.68 530.469 235.68C531.891 235.68 533.18 235.914 534.336 236.383C535.508 236.852 536.508 237.492 537.336 238.305C538.18 239.117 538.828 240.078 539.281 241.188C539.734 242.281 539.961 243.453 539.961 244.703C539.961 245.953 539.734 247.125 539.281 248.219C538.828 249.312 538.18 250.266 537.336 251.078C536.508 251.891 535.508 252.531 534.336 253C533.18 253.469 531.891 253.703 530.469 253.703C529.047 253.703 527.75 253.469 526.578 253C525.422 252.531 524.43 251.891 523.602 251.078C522.773 250.266 522.133 249.312 521.68 248.219C521.227 247.125 521 245.953 521 244.703ZM527.633 244.703C527.633 245.359 527.859 245.938 528.312 246.438C528.781 246.922 529.5 247.164 530.469 247.164C531.438 247.164 532.156 246.922 532.625 246.438C533.094 245.938 533.328 245.359 533.328 244.703C533.328 244.047 533.086 243.469 532.602 242.969C532.133 242.469 531.422 242.219 530.469 242.219C529.984 242.219 529.562 242.289 529.203 242.43C528.859 242.555 528.57 242.734 528.336 242.969C528.102 243.203 527.922 243.469 527.797 243.766C527.688 244.062 527.633 244.375 527.633 244.703Z" fill="#E598BA"/>
<path d="M146.793 300.191L157.386 291.191H164.652V324.8H155.793V303.261L152.16 306.331L146.793 300.191ZM190.996 324.8V318.402H170.043V312.027L191.113 291.191H199.855V311.183H205.855V318.402H199.855V324.8H190.996ZM190.996 311.183V302.417L182.113 311.183H190.996Z" fill="#252C3F"/>
<path d="M90.8305 361.76V356.736H92.0785V367.936H90.8305V362.88H83.9505V367.936H82.7025V356.736H83.9505V361.76H90.8305ZM98.0501 359.136C99.2661 359.136 100.183 359.434 100.802 360.032C101.431 360.618 101.746 361.461 101.746 362.56V367.936H100.546V366.304C100.269 366.784 99.8368 367.205 99.2501 367.568C98.6741 367.92 97.9968 368.096 97.2181 368.096C96.3008 368.096 95.5701 367.85 95.0261 367.36C94.4928 366.869 94.2261 366.229 94.2261 365.44C94.2261 364.608 94.5088 363.941 95.0741 363.44C95.6395 362.938 96.4875 362.688 97.6181 362.688C98.4715 362.688 99.4475 362.746 100.546 362.864V362.576C100.546 361.808 100.322 361.226 99.8741 360.832C99.4368 360.426 98.7915 360.224 97.9381 360.224C97.4795 360.224 97.0155 360.309 96.5461 360.48C96.0768 360.64 95.6555 360.874 95.2821 361.184L94.6741 360.304C95.1435 359.909 95.6715 359.616 96.2581 359.424C96.8448 359.232 97.4421 359.136 98.0501 359.136ZM97.5861 366.992C98.1408 366.992 98.6421 366.853 99.0901 366.576C99.5488 366.298 99.9061 365.941 100.162 365.504C100.418 365.056 100.546 364.602 100.546 364.144V363.888C99.7355 363.76 98.8501 363.696 97.8901 363.696C96.2155 363.696 95.3781 364.256 95.3781 365.376C95.3781 365.898 95.5701 366.298 95.9541 366.576C96.3381 366.853 96.8821 366.992 97.5861 366.992ZM112.003 359.28V367.936H110.803V361.168L105.075 367.936H104.115V359.28H105.315V366.016L111.011 359.28H112.003ZM110.419 356.416C110.419 357.045 110.233 357.552 109.859 357.936C109.486 358.309 108.985 358.496 108.355 358.496C107.715 358.496 107.209 358.309 106.835 357.936C106.462 357.552 106.275 357.045 106.275 356.416H107.187C107.187 357.312 107.577 357.76 108.355 357.76C109.123 357.76 109.507 357.312 109.507 356.416H110.419ZM122.185 367.936H120.857L117.785 364.16H115.881V367.936H114.697V359.28H115.881V363.088H117.801L120.601 359.28H121.945L118.649 363.552L122.185 367.936ZM128.698 359.136C129.476 359.136 130.186 359.328 130.826 359.712C131.476 360.096 131.983 360.634 132.346 361.328C132.719 362.01 132.906 362.778 132.906 363.632C132.906 364.496 132.719 365.269 132.346 365.952C131.983 366.624 131.482 367.152 130.842 367.536C130.202 367.909 129.487 368.096 128.698 368.096C127.951 368.096 127.268 367.941 126.65 367.632C126.042 367.322 125.556 366.88 125.194 366.304V370.672H124.01V359.28H125.194V360.912C125.556 360.346 126.047 359.909 126.666 359.6C127.284 359.29 127.962 359.136 128.698 359.136ZM128.522 366.976C129.13 366.976 129.679 366.837 130.17 366.56C130.66 366.272 131.039 365.877 131.306 365.376C131.583 364.864 131.722 364.282 131.722 363.632C131.722 362.97 131.583 362.384 131.306 361.872C131.039 361.36 130.66 360.96 130.17 360.672C129.679 360.384 129.13 360.24 128.522 360.24C127.882 360.24 127.311 360.384 126.81 360.672C126.308 360.949 125.914 361.344 125.626 361.856C125.338 362.368 125.194 362.954 125.194 363.616C125.194 364.277 125.338 364.864 125.626 365.376C125.914 365.888 126.308 366.282 126.81 366.56C127.311 366.837 127.882 366.976 128.522 366.976ZM138.16 359.136C139.376 359.136 140.293 359.434 140.912 360.032C141.541 360.618 141.856 361.461 141.856 362.56V367.936H140.656V366.304C140.378 366.784 139.946 367.205 139.36 367.568C138.784 367.92 138.106 368.096 137.328 368.096C136.41 368.096 135.68 367.85 135.136 367.36C134.602 366.869 134.336 366.229 134.336 365.44C134.336 364.608 134.618 363.941 135.184 363.44C135.749 362.938 136.597 362.688 137.728 362.688C138.581 362.688 139.557 362.746 140.656 362.864V362.576C140.656 361.808 140.432 361.226 139.984 360.832C139.546 360.426 138.901 360.224 138.048 360.224C137.589 360.224 137.125 360.309 136.656 360.48C136.186 360.64 135.765 360.874 135.392 361.184L134.784 360.304C135.253 359.909 135.781 359.616 136.368 359.424C136.954 359.232 137.552 359.136 138.16 359.136ZM137.696 366.992C138.25 366.992 138.752 366.853 139.2 366.576C139.658 366.298 140.016 365.941 140.272 365.504C140.528 365.056 140.656 364.602 140.656 364.144V363.888C139.845 363.76 138.96 363.696 138 363.696C136.325 363.696 135.488 364.256 135.488 365.376C135.488 365.898 135.68 366.298 136.064 366.576C136.448 366.853 136.992 366.992 137.696 366.992ZM154.641 359.28V366.976H155.617V369.2H154.497V367.936H144.385V359.28H145.569V366.976H148.913V359.28H150.113V366.976H153.441V359.28H154.641ZM165.128 359.28V367.936H163.928V361.168L158.2 367.936H157.24V359.28H158.44V366.016L164.136 359.28H165.128ZM171.918 363.504L175.454 367.936H174.062L171.182 364.352L168.302 367.936H166.942L170.478 363.52L167.086 359.28H168.51L171.198 362.704L173.886 359.28H175.278L171.918 363.504ZM187.37 363.488C188.042 363.594 188.564 363.84 188.938 364.224C189.311 364.608 189.498 365.082 189.498 365.648C189.498 366.362 189.21 366.922 188.634 367.328C188.068 367.733 187.29 367.936 186.298 367.936H182.01V359.28H186.106C187.023 359.28 187.743 359.477 188.266 359.872C188.799 360.256 189.066 360.784 189.066 361.456C189.066 361.957 188.916 362.384 188.618 362.736C188.319 363.088 187.903 363.338 187.37 363.488ZM183.194 360.368V363.04H186.09C186.655 363.04 187.092 362.922 187.402 362.688C187.722 362.453 187.882 362.117 187.882 361.68C187.882 361.274 187.722 360.954 187.402 360.72C187.082 360.485 186.607 360.368 185.978 360.368H183.194ZM186.25 366.848C186.9 366.848 187.396 366.73 187.738 366.496C188.09 366.261 188.266 365.925 188.266 365.488C188.266 365.072 188.09 364.746 187.738 364.512C187.396 364.277 186.927 364.16 186.33 364.16H183.194V366.848H186.25ZM199.425 359.28V367.936H198.225V361.168L192.497 367.936H191.537V359.28H192.737V366.016L198.433 359.28H199.425ZM209.607 367.936H208.279L205.207 364.16H203.303V367.936H202.119V359.28H203.303V363.088H205.223L208.023 359.28H209.367L206.071 363.552L209.607 367.936ZM218.312 367.936H217.112V360.24H212.984L212.888 364.656C212.877 365.52 212.776 366.192 212.584 366.672C212.402 367.141 212.136 367.472 211.784 367.664C211.442 367.845 210.989 367.936 210.424 367.936V367.04C210.861 367.029 211.176 366.837 211.368 366.464C211.57 366.09 211.677 365.456 211.688 364.56L211.816 359.28H218.312V367.936ZM224.05 359.136C225.266 359.136 226.183 359.434 226.802 360.032C227.431 360.618 227.746 361.461 227.746 362.56V367.936H226.546V366.304C226.269 366.784 225.837 367.205 225.25 367.568C224.674 367.92 223.997 368.096 223.218 368.096C222.301 368.096 221.57 367.85 221.026 367.36C220.493 366.869 220.226 366.229 220.226 365.44C220.226 364.608 220.509 363.941 221.074 363.44C221.639 362.938 222.487 362.688 223.618 362.688C224.471 362.688 225.447 362.746 226.546 362.864V362.576C226.546 361.808 226.322 361.226 225.874 360.832C225.437 360.426 224.791 360.224 223.938 360.224C223.479 360.224 223.015 360.309 222.546 360.48C222.077 360.64 221.655 360.874 221.282 361.184L220.674 360.304C221.143 359.909 221.671 359.616 222.258 359.424C222.845 359.232 223.442 359.136 224.05 359.136ZM223.586 366.992C224.141 366.992 224.642 366.853 225.09 366.576C225.549 366.298 225.906 365.941 226.162 365.504C226.418 365.056 226.546 364.602 226.546 364.144V363.888C225.735 363.76 224.85 363.696 223.89 363.696C222.215 363.696 221.378 364.256 221.378 365.376C221.378 365.898 221.57 366.298 221.954 366.576C222.338 366.853 222.882 366.992 223.586 366.992ZM237.267 366.976H238.051V369.2H236.819V367.936H230.531V369.2H229.299V366.976H229.763C229.923 366.976 230.083 366.885 230.243 366.704C230.403 366.522 230.537 366.245 230.643 365.872C230.761 365.498 230.83 365.05 230.851 364.528L231.011 359.28H237.267V366.976ZM236.083 360.24H232.163L232.035 364.416C232.003 365.546 231.753 366.4 231.283 366.976H236.083V360.24ZM243.706 359.136C244.922 359.136 245.84 359.434 246.458 360.032C247.088 360.618 247.402 361.461 247.402 362.56V367.936H246.202V366.304C245.925 366.784 245.493 367.205 244.906 367.568C244.33 367.92 243.653 368.096 242.874 368.096C241.957 368.096 241.226 367.85 240.682 367.36C240.149 366.869 239.882 366.229 239.882 365.44C239.882 364.608 240.165 363.941 240.73 363.44C241.296 362.938 242.144 362.688 243.274 362.688C244.128 362.688 245.104 362.746 246.202 362.864V362.576C246.202 361.808 245.978 361.226 245.53 360.832C245.093 360.426 244.448 360.224 243.594 360.224C243.136 360.224 242.672 360.309 242.202 360.48C241.733 360.64 241.312 360.874 240.938 361.184L240.33 360.304C240.8 359.909 241.328 359.616 241.914 359.424C242.501 359.232 243.098 359.136 243.706 359.136ZM243.242 366.992C243.797 366.992 244.298 366.853 244.746 366.576C245.205 366.298 245.562 365.941 245.818 365.504C246.074 365.056 246.202 364.602 246.202 364.144V363.888C245.392 363.76 244.506 363.696 243.546 363.696C241.872 363.696 241.034 364.256 241.034 365.376C241.034 365.898 241.226 366.298 241.61 366.576C241.994 366.853 242.538 366.992 243.242 366.992ZM256.3 359.28H257.5V367.936H256.3V364.528C255.82 364.762 255.329 364.96 254.828 365.12C254.337 365.28 253.766 365.36 253.116 365.36C252.081 365.36 251.265 365.029 250.668 364.368C250.07 363.706 249.772 362.794 249.772 361.632V359.28H250.972V361.424C250.972 362.309 251.201 363.013 251.66 363.536C252.129 364.058 252.769 364.32 253.58 364.32C254.518 364.32 255.425 364.064 256.3 363.552V359.28ZM261.366 367.936H260.182V359.28H261.366V367.936ZM261.414 358.064H260.15V356.304H261.414V358.064ZM269.417 363.488C270.089 363.594 270.611 363.84 270.985 364.224C271.358 364.608 271.545 365.082 271.545 365.648C271.545 366.362 271.257 366.922 270.681 367.328C270.115 367.733 269.337 367.936 268.345 367.936H264.057V359.28H268.153C269.07 359.28 269.79 359.477 270.313 359.872C270.846 360.256 271.113 360.784 271.113 361.456C271.113 361.957 270.963 362.384 270.665 362.736C270.366 363.088 269.95 363.338 269.417 363.488ZM265.241 360.368V363.04H268.137C268.702 363.04 269.139 362.922 269.449 362.688C269.769 362.453 269.929 362.117 269.929 361.68C269.929 361.274 269.769 360.954 269.449 360.72C269.129 360.485 268.654 360.368 268.025 360.368H265.241ZM268.297 366.848C268.947 366.848 269.443 366.73 269.785 366.496C270.137 366.261 270.313 365.925 270.313 365.488C270.313 365.072 270.137 364.746 269.785 364.512C269.443 364.277 268.974 364.16 268.377 364.16H265.241V366.848H268.297Z" fill="#252C3F"/>
<defs>
<filter id="filter0_ii_18_5" x="32.1218" y="125.934" width="573.437" height="366.908" filterUnits="userSpaceOnUse" color-interpolation-filters="sRGB">
<feFlood flood-opacity="0" result="BackgroundImageFix"/>
<feBlend mode="normal" in="SourceGraphic" in2="BackgroundImageFix" result="shape"/>
<feColorMatrix in="SourceAlpha" type="matrix" values="0 0 0 0 0 0 0 0 0 0 0 0 0 0 0 0 0 0 127 0" result="hardAlpha"/>
<feOffset/>
<feGaussianBlur stdDeviation="50"/>
<feComposite in2="hardAlpha" operator="arithmetic" k2="-1" k3="1"/>
<feColorMatrix type="matrix" values="0 0 0 0 0.968627 0 0 0 0 0.705882 0 0 0 0 0.819608 0 0 0 1 0"/>
<feBlend mode="normal" in2="shape" result="effect1_innerShadow_18_5"/>
<feColorMatrix in="SourceAlpha" type="matrix" values="0 0 0 0 0 0 0 0 0 0 0 0 0 0 0 0 0 0 127 0" result="hardAlpha"/>
<feOffset dy="4"/>
<feGaussianBlur stdDeviation="65"/>
<feComposite in2="hardAlpha" operator="arithmetic" k2="-1" k3="1"/>
<feColorMatrix type="matrix" values="0 0 0 0 0.968627 0 0 0 0 0.705882 0 0 0 0 0.819608 0 0 0 1 0"/>
<feBlend mode="normal" in2="effect1_innerShadow_18_5" result="effect2_innerShadow_18_5"/>
</filter>
<clipPath id="bgblur_0_18_5_clip_path" transform="translate(-32.1218 -125.934)"><path d="M129.017 474.163C57.7629 446.108 22.744 365.601 50.7997 294.348L56.3961 280.134C84.4518 208.881 164.958 173.862 236.212 201.917C307.466 229.973 342.485 310.479 314.429 381.733L308.833 395.946C280.777 467.2 200.271 502.219 129.017 474.163ZM434.21 381.752C378.988 360.009 351.848 297.616 373.592 242.395L389.082 203.052C410.826 147.83 473.218 120.691 528.44 142.434C583.662 164.177 610.801 226.57 589.058 281.791L573.567 321.134C551.824 376.355 489.432 403.495 434.21 381.752Z"/>
</clipPath><radialGradient id="paint0_radial_18_5" cx="0" cy="0" r="1" gradientUnits="userSpaceOnUse" gradientTransform="translate(316.057 303.31) rotate(-158.508) scale(469.882 427.424)">
<stop stop-color="#B1D4E0"/>
<stop offset="1" stop-color="#FFC5A1" stop-opacity="0"/>
</radialGradient>
<linearGradient id="paint1_linear_18_5" x1="433.911" y1="92.6492" x2="102.468" y2="456.892" gradientUnits="userSpaceOnUse">
<stop stop-color="#FFFDC7" stop-opacity="0"/>
<stop offset="0.369389" stop-color="#FFCB9D"/>
<stop offset="0.828125" stop-color="#FFFEE1" stop-opacity="0"/>
</linearGradient>
</defs>
</svg>
