<svg width="597" height="583" viewBox="0 0 597 583" fill="none" xmlns="http://www.w3.org/2000/svg">
<foreignObject x="89.8634" y="37.8694" width="394.984" height="517.569"><div xmlns="http://www.w3.org/1999/xhtml" style="backdrop-filter:blur(4.5px);clip-path:url(#bgblur_0_18_3_clip_path);height:100%;width:100%"></div></foreignObject><g filter="url(#filter0_ii_18_3)" data-figma-bg-blur-radius="9">
<path d="M210.457 402.823C228.516 366.016 213.318 321.538 176.511 303.479L154.278 292.57C105.192 268.486 84.9234 209.17 109.007 160.084L126.476 124.481C160.207 55.7324 243.284 27.3453 312.033 61.0769L355.575 82.4404C407.85 108.089 429.435 171.26 403.786 223.535L393.159 245.195C373.379 285.508 390.025 334.223 430.338 354.002V354.002C470.651 373.782 487.296 422.496 467.517 462.809L455.996 486.289C429.854 539.569 365.47 561.569 312.189 535.427L244.402 502.168C207.595 484.108 192.397 439.63 210.457 402.823V402.823Z" fill="url(#paint0_radial_18_3)" fill-opacity="0.3"/>
<path d="M210.457 402.823C228.516 366.016 213.318 321.538 176.511 303.479L154.278 292.57C105.192 268.486 84.9234 209.17 109.007 160.084L126.476 124.481C160.207 55.7324 243.284 27.3453 312.033 61.0769L355.575 82.4404C407.85 108.089 429.435 171.26 403.786 223.535L393.159 245.195C373.379 285.508 390.025 334.223 430.338 354.002V354.002C470.651 373.782 487.296 422.496 467.517 462.809L455.996 486.289C429.854 539.569 365.47 561.569 312.189 535.427L244.402 502.168C207.595 484.108 192.397 439.63 210.457 402.823V402.823Z" fill="url(#paint1_linear_18_3)" fill-opacity="0.98"/>
</g>
<path d="M181.945 164.367C182.664 164.93 183.554 165.422 184.617 165.844C185.523 166.219 186.656 166.562 188.015 166.875C189.375 167.172 190.976 167.32 192.82 167.32C194.179 167.32 195.359 167.234 196.359 167.062C197.359 166.891 198.179 166.656 198.82 166.359C199.476 166.047 199.96 165.68 200.273 165.258C200.585 164.836 200.742 164.375 200.742 163.875C200.742 163.172 200.507 162.609 200.039 162.188C199.57 161.766 198.835 161.445 197.835 161.227C196.835 160.992 195.546 160.844 193.968 160.781C192.406 160.703 190.523 160.664 188.32 160.664V153.047C190.179 153.047 191.82 153.016 193.242 152.953C194.679 152.875 195.882 152.727 196.851 152.508C197.82 152.273 198.554 151.945 199.054 151.523C199.554 151.086 199.804 150.508 199.804 149.789C199.804 149.383 199.679 149.016 199.429 148.688C199.195 148.344 198.796 148.055 198.234 147.82C197.687 147.586 196.968 147.406 196.078 147.281C195.187 147.141 194.101 147.07 192.82 147.07C191.273 147.07 189.906 147.219 188.718 147.516C187.531 147.797 186.523 148.117 185.695 148.477C184.726 148.883 183.89 149.344 183.187 149.859L177.164 144.82C178.304 143.82 179.648 142.93 181.195 142.148C181.851 141.82 182.585 141.492 183.398 141.164C184.226 140.836 185.125 140.547 186.093 140.297C187.062 140.047 188.109 139.844 189.234 139.688C190.359 139.531 191.554 139.453 192.82 139.453C195.101 139.453 197.21 139.633 199.148 139.992C201.085 140.336 202.757 140.898 204.164 141.68C205.57 142.461 206.671 143.484 207.468 144.75C208.265 146 208.664 147.523 208.664 149.32C208.664 150.242 208.523 151.078 208.242 151.828C207.976 152.578 207.617 153.258 207.164 153.867C206.71 154.461 206.187 154.984 205.593 155.438C205.015 155.875 204.414 156.242 203.789 156.539C204.476 156.758 205.164 157.078 205.851 157.5C206.554 157.922 207.179 158.453 207.726 159.094C208.289 159.734 208.742 160.492 209.085 161.367C209.429 162.242 209.601 163.234 209.601 164.344C209.601 166.078 209.203 167.617 208.406 168.961C207.625 170.289 206.5 171.406 205.031 172.312C203.578 173.203 201.812 173.867 199.734 174.305C197.671 174.758 195.367 174.969 192.82 174.938C191.273 174.938 189.843 174.859 188.531 174.703C187.234 174.547 186.046 174.336 184.968 174.07C183.89 173.82 182.914 173.531 182.039 173.203C181.179 172.875 180.421 172.539 179.765 172.195C178.203 171.398 176.945 170.484 175.992 169.453L181.945 164.367ZM232.359 174.938C229.343 174.938 226.671 174.523 224.343 173.695C222.015 172.852 220.054 171.656 218.46 170.109C216.867 168.562 215.656 166.703 214.828 164.531C214 162.344 213.585 159.898 213.585 157.195C213.585 154.508 214 152.07 214.828 149.883C215.656 147.695 216.867 145.828 218.46 144.281C220.054 142.734 222.015 141.547 224.343 140.719C226.671 139.875 229.343 139.453 232.359 139.453C235.375 139.453 238.046 139.875 240.375 140.719C242.703 141.547 244.664 142.734 246.257 144.281C247.851 145.828 249.062 147.695 249.89 149.883C250.718 152.07 251.132 154.508 251.132 157.195C251.132 159.898 250.718 162.344 249.89 164.531C249.062 166.703 247.851 168.562 246.257 170.109C244.664 171.656 242.703 172.852 240.375 173.695C238.046 174.523 235.375 174.938 232.359 174.938ZM232.359 167.32C235.765 167.32 238.265 166.477 239.859 164.789C241.468 163.086 242.273 160.555 242.273 157.195C242.273 153.852 241.468 151.328 239.859 149.625C238.265 147.922 235.765 147.07 232.359 147.07C228.953 147.07 226.445 147.922 224.835 149.625C223.242 151.328 222.445 153.852 222.445 157.195C222.445 160.555 223.242 163.086 224.835 164.789C226.445 166.477 228.953 167.32 232.359 167.32ZM273.89 174.938C270.875 174.938 268.203 174.523 265.875 173.695C263.546 172.852 261.585 171.656 259.992 170.109C258.398 168.562 257.187 166.703 256.359 164.531C255.531 162.344 255.117 159.898 255.117 157.195C255.117 154.508 255.531 152.07 256.359 149.883C257.187 147.695 258.398 145.828 259.992 144.281C261.585 142.734 263.546 141.547 265.875 140.719C268.203 139.875 270.875 139.453 273.89 139.453C276.906 139.453 279.578 139.875 281.906 140.719C284.234 141.547 286.195 142.734 287.789 144.281C289.382 145.828 290.593 147.695 291.421 149.883C292.25 152.07 292.664 154.508 292.664 157.195C292.664 159.898 292.25 162.344 291.421 164.531C290.593 166.703 289.382 168.562 287.789 170.109C286.195 171.656 284.234 172.852 281.906 173.695C279.578 174.523 276.906 174.938 273.89 174.938ZM273.89 167.32C277.296 167.32 279.796 166.477 281.39 164.789C283 163.086 283.804 160.555 283.804 157.195C283.804 153.852 283 151.328 281.39 149.625C279.796 147.922 277.296 147.07 273.89 147.07C270.484 147.07 267.976 147.922 266.367 149.625C264.773 151.328 263.976 153.852 263.976 157.195C263.976 160.555 264.773 163.086 266.367 164.789C267.976 166.477 270.484 167.32 273.89 167.32ZM325.007 161.906H314.859V171.82H306.773V161.906H296.648V154.289H306.773V144.398H314.859V154.289H325.007V161.906Z" fill="#252C3F"/>
<path d="M158.944 222.936H157.616L156.448 220.36H149.872L148.704 222.936H147.408L152.544 211.736H153.792L158.944 222.936ZM153.168 213.144L150.384 219.24H155.936L153.168 213.144ZM168.123 222.936H166.795L163.723 219.16H161.819V222.936H160.635V214.28H161.819V218.088H163.739L166.539 214.28H167.883L164.587 218.552L168.123 222.936ZM168.884 214.28H176.292V215.384H173.188V222.936H171.988V215.384H168.884V214.28ZM185.988 214.28V222.936H184.788V216.168L179.06 222.936H178.1V214.28H179.3V221.016L184.996 214.28H185.988ZM194.042 218.488C194.714 218.594 195.236 218.84 195.61 219.224C195.983 219.608 196.17 220.082 196.17 220.648C196.17 221.362 195.882 221.922 195.306 222.328C194.74 222.733 193.962 222.936 192.97 222.936H188.682V214.28H192.778C193.695 214.28 194.415 214.477 194.938 214.872C195.471 215.256 195.738 215.784 195.738 216.456C195.738 216.957 195.588 217.384 195.29 217.736C194.991 218.088 194.575 218.338 194.042 218.488ZM189.866 215.368V218.04H192.762C193.327 218.04 193.764 217.922 194.074 217.688C194.394 217.453 194.554 217.117 194.554 216.68C194.554 216.274 194.394 215.954 194.074 215.72C193.754 215.485 193.279 215.368 192.65 215.368H189.866ZM192.922 221.848C193.572 221.848 194.068 221.73 194.41 221.496C194.762 221.261 194.938 220.925 194.938 220.488C194.938 220.072 194.762 219.746 194.41 219.512C194.068 219.277 193.599 219.16 193.002 219.16H189.866V221.848H192.922ZM204.929 217.992V214.28H206.129V222.936H204.929V219.064H199.553V222.936H198.369V214.28H199.553V217.992H204.929ZM216.55 214.28V222.936H215.35V216.168L209.622 222.936H208.662V214.28H209.862V221.016L215.558 214.28H216.55ZM223.34 218.504L226.876 222.936H225.484L222.604 219.352L219.724 222.936H218.364L221.9 218.52L218.508 214.28H219.932L222.62 217.704L225.308 214.28H226.7L223.34 218.504ZM240.92 222.936H239.592L236.52 219.16H234.616V222.936H233.432V214.28H234.616V218.088H236.536L239.336 214.28H240.68L237.384 218.552L240.92 222.936ZM245.917 223.096C245.042 223.096 244.258 222.904 243.565 222.52C242.882 222.136 242.344 221.602 241.949 220.92C241.565 220.237 241.373 219.464 241.373 218.6C241.373 217.746 241.565 216.984 241.949 216.312C242.344 215.629 242.888 215.096 243.581 214.712C244.274 214.328 245.053 214.136 245.917 214.136C246.792 214.136 247.576 214.328 248.269 214.712C248.962 215.096 249.501 215.624 249.885 216.296C250.28 216.968 250.477 217.73 250.477 218.584C250.477 219.448 250.28 220.221 249.885 220.904C249.501 221.586 248.962 222.125 248.269 222.52C247.576 222.904 246.792 223.096 245.917 223.096ZM245.933 221.992C246.573 221.992 247.144 221.848 247.645 221.56C248.157 221.272 248.557 220.872 248.845 220.36C249.133 219.848 249.277 219.261 249.277 218.6C249.277 217.938 249.133 217.352 248.845 216.84C248.557 216.328 248.157 215.933 247.645 215.656C247.133 215.368 246.557 215.224 245.917 215.224C245.277 215.224 244.701 215.368 244.189 215.656C243.688 215.933 243.293 216.328 243.005 216.84C242.717 217.352 242.573 217.938 242.573 218.6C242.573 219.261 242.717 219.848 243.005 220.36C243.293 220.872 243.693 221.272 244.205 221.56C244.717 221.848 245.293 221.992 245.933 221.992ZM257.354 214.136C258.133 214.136 258.842 214.328 259.482 214.712C260.133 215.096 260.639 215.634 261.002 216.328C261.375 217.01 261.562 217.778 261.562 218.632C261.562 219.496 261.375 220.269 261.002 220.952C260.639 221.624 260.138 222.152 259.498 222.536C258.858 222.909 258.143 223.096 257.354 223.096C256.607 223.096 255.925 222.941 255.306 222.632C254.698 222.322 254.213 221.88 253.85 221.304V225.672H252.666V214.28H253.85V215.912C254.213 215.346 254.703 214.909 255.322 214.6C255.941 214.29 256.618 214.136 257.354 214.136ZM257.178 221.976C257.786 221.976 258.335 221.837 258.826 221.56C259.317 221.272 259.695 220.877 259.962 220.376C260.239 219.864 260.378 219.282 260.378 218.632C260.378 217.97 260.239 217.384 259.962 216.872C259.695 216.36 259.317 215.96 258.826 215.672C258.335 215.384 257.786 215.24 257.178 215.24C256.538 215.24 255.967 215.384 255.466 215.672C254.965 215.949 254.57 216.344 254.282 216.856C253.994 217.368 253.85 217.954 253.85 218.616C253.85 219.277 253.994 219.864 254.282 220.376C254.57 220.888 254.965 221.282 255.466 221.56C255.967 221.837 256.538 221.976 257.178 221.976ZM271.488 214.28V222.936H270.288V216.168L264.56 222.936H263.6V214.28H264.8V221.016L270.496 214.28H271.488ZM278.23 223.096C277.376 223.096 276.603 222.904 275.91 222.52C275.216 222.136 274.672 221.608 274.278 220.936C273.883 220.253 273.686 219.48 273.686 218.616C273.686 217.752 273.883 216.984 274.278 216.312C274.672 215.629 275.216 215.096 275.91 214.712C276.603 214.328 277.376 214.136 278.23 214.136C278.87 214.136 279.472 214.253 280.038 214.488C280.614 214.712 281.115 215.053 281.542 215.512L280.678 216.248C280.336 215.885 279.963 215.624 279.558 215.464C279.152 215.304 278.704 215.224 278.214 215.224C277.584 215.224 277.014 215.362 276.502 215.64C276 215.917 275.606 216.312 275.318 216.824C275.03 217.336 274.886 217.928 274.886 218.6C274.886 219.282 275.03 219.88 275.318 220.392C275.606 220.904 276.006 221.298 276.518 221.576C277.03 221.853 277.606 221.992 278.246 221.992C278.736 221.992 279.179 221.912 279.574 221.752C279.968 221.581 280.342 221.314 280.694 220.952L281.542 221.672C281.115 222.141 280.614 222.498 280.038 222.744C279.472 222.978 278.87 223.096 278.23 223.096ZM282.29 214.28H289.698V215.384H286.594V222.936H285.394V215.384H282.29V214.28ZM298.116 214.28H299.428L295.652 222.936L295.3 223.752C294.98 224.488 294.596 225.016 294.148 225.336C293.711 225.666 293.146 225.832 292.452 225.832C292.154 225.832 291.844 225.784 291.524 225.688C291.215 225.602 290.959 225.496 290.756 225.368L291.14 224.488C291.546 224.701 291.967 224.808 292.404 224.808C292.82 224.808 293.156 224.701 293.412 224.488C293.668 224.285 293.908 223.944 294.132 223.464L294.372 222.92L290.596 214.28H291.908L295.012 221.56L298.116 214.28ZM306.401 218.488C307.073 218.594 307.596 218.84 307.969 219.224C308.342 219.608 308.529 220.082 308.529 220.648C308.529 221.362 308.241 221.922 307.665 222.328C307.1 222.733 306.321 222.936 305.329 222.936H301.041V214.28H305.137C306.054 214.28 306.774 214.477 307.297 214.872C307.83 215.256 308.097 215.784 308.097 216.456C308.097 216.957 307.948 217.384 307.649 217.736C307.35 218.088 306.934 218.338 306.401 218.488ZM302.225 215.368V218.04H305.121C305.686 218.04 306.124 217.922 306.433 217.688C306.753 217.453 306.913 217.117 306.913 216.68C306.913 216.274 306.753 215.954 306.433 215.72C306.113 215.485 305.638 215.368 305.009 215.368H302.225ZM305.281 221.848C305.932 221.848 306.428 221.73 306.769 221.496C307.121 221.261 307.297 220.925 307.297 220.488C307.297 220.072 307.121 219.746 306.769 219.512C306.428 219.277 305.958 219.16 305.361 219.16H302.225V221.848H305.281ZM313.785 214.136C315.001 214.136 315.918 214.434 316.537 215.032C317.166 215.618 317.481 216.461 317.481 217.56V222.936H316.281V221.304C316.003 221.784 315.571 222.205 314.985 222.568C314.409 222.92 313.731 223.096 312.953 223.096C312.035 223.096 311.305 222.85 310.761 222.36C310.227 221.869 309.961 221.229 309.961 220.44C309.961 219.608 310.243 218.941 310.809 218.44C311.374 217.938 312.222 217.688 313.353 217.688C314.206 217.688 315.182 217.746 316.281 217.864V217.576C316.281 216.808 316.057 216.226 315.609 215.832C315.171 215.426 314.526 215.224 313.673 215.224C313.214 215.224 312.75 215.309 312.281 215.48C311.811 215.64 311.39 215.874 311.017 216.184L310.409 215.304C310.878 214.909 311.406 214.616 311.993 214.424C312.579 214.232 313.177 214.136 313.785 214.136ZM313.321 221.992C313.875 221.992 314.377 221.853 314.825 221.576C315.283 221.298 315.641 220.941 315.897 220.504C316.153 220.056 316.281 219.602 316.281 219.144V218.888C315.47 218.76 314.585 218.696 313.625 218.696C311.95 218.696 311.113 219.256 311.113 220.376C311.113 220.898 311.305 221.298 311.689 221.576C312.073 221.853 312.617 221.992 313.321 221.992ZM326.378 214.28H327.578V222.936H326.378V219.528C325.898 219.762 325.407 219.96 324.906 220.12C324.415 220.28 323.844 220.36 323.194 220.36C322.159 220.36 321.343 220.029 320.746 219.368C320.148 218.706 319.85 217.794 319.85 216.632V214.28H321.05V216.424C321.05 217.309 321.279 218.013 321.738 218.536C322.207 219.058 322.847 219.32 323.658 219.32C324.596 219.32 325.503 219.064 326.378 218.552V214.28ZM331.444 222.936H330.26V214.28H331.444V222.936ZM331.492 213.064H330.228V211.304H331.492V213.064ZM339.495 218.488C340.167 218.594 340.689 218.84 341.063 219.224C341.436 219.608 341.623 220.082 341.623 220.648C341.623 221.362 341.335 221.922 340.759 222.328C340.193 222.733 339.415 222.936 338.423 222.936H334.135V214.28H338.231C339.148 214.28 339.868 214.477 340.391 214.872C340.924 215.256 341.191 215.784 341.191 216.456C341.191 216.957 341.041 217.384 340.743 217.736C340.444 218.088 340.028 218.338 339.495 218.488ZM335.319 215.368V218.04H338.215C338.78 218.04 339.217 217.922 339.527 217.688C339.847 217.453 340.007 217.117 340.007 216.68C340.007 216.274 339.847 215.954 339.527 215.72C339.207 215.485 338.732 215.368 338.103 215.368H335.319ZM338.375 221.848C339.025 221.848 339.521 221.73 339.863 221.496C340.215 221.261 340.391 220.925 340.391 220.488C340.391 220.072 340.215 219.746 339.863 219.512C339.521 219.277 339.052 219.16 338.455 219.16H335.319V221.848H338.375Z" fill="#252C3F"/>
<defs>
<filter id="filter0_ii_18_3" x="89.8634" y="37.8694" width="394.984" height="517.569" filterUnits="userSpaceOnUse" color-interpolation-filters="sRGB">
<feFlood flood-opacity="0" result="BackgroundImageFix"/>
<feBlend mode="normal" in="SourceGraphic" in2="BackgroundImageFix" result="shape"/>
<feColorMatrix in="SourceAlpha" type="matrix" values="0 0 0 0 0 0 0 0 0 0 0 0 0 0 0 0 0 0 127 0" result="hardAlpha"/>
<feOffset/>
<feGaussianBlur stdDeviation="50"/>
<feComposite in2="hardAlpha" operator="arithmetic" k2="-1" k3="1"/>
<feColorMatrix type="matrix" values="0 0 0 0 0.968627 0 0 0 0 0.705882 0 0 0 0 0.819608 0 0 0 1 0"/>
<feBlend mode="normal" in2="shape" result="effect1_innerShadow_18_3"/>
<feColorMatrix in="SourceAlpha" type="matrix" values="0 0 0 0 0 0 0 0 0 0 0 0 0 0 0 0 0 0 127 0" result="hardAlpha"/>
<feOffset dy="4"/>
<feGaussianBlur stdDeviation="65"/>
<feComposite in2="hardAlpha" operator="arithmetic" k2="-1" k3="1"/>
<feColorMatrix type="matrix" values="0 0 0 0 0.74902 0 0 0 0 0.67451 0 0 0 0 0.811765 0 0 0 1 0"/>
<feBlend mode="normal" in2="effect1_innerShadow_18_3" result="effect2_innerShadow_18_3"/>
</filter>
<clipPath id="bgblur_0_18_3_clip_path" transform="translate(-89.8634 -37.8694)"><path d="M210.457 402.823C228.516 366.016 213.318 321.538 176.511 303.479L154.278 292.57C105.192 268.486 84.9234 209.17 109.007 160.084L126.476 124.481C160.207 55.7324 243.284 27.3453 312.033 61.0769L355.575 82.4404C407.85 108.089 429.435 171.26 403.786 223.535L393.159 245.195C373.379 285.508 390.025 334.223 430.338 354.002V354.002C470.651 373.782 487.296 422.496 467.517 462.809L455.996 486.289C429.854 539.569 365.47 561.569 312.189 535.427L244.402 502.168C207.595 484.108 192.397 439.63 210.457 402.823V402.823Z"/>
</clipPath><radialGradient id="paint0_radial_18_3" cx="0" cy="0" r="1" gradientUnits="userSpaceOnUse" gradientTransform="translate(281.628 324.739) rotate(-63.8652) scale(469.881 427.424)">
<stop stop-color="#F7B4D1"/>
<stop offset="1" stop-color="#B1D4E0"/>
</radialGradient>
<linearGradient id="paint1_linear_18_3" x1="482.057" y1="459.258" x2="145.839" y2="99.4182" gradientUnits="userSpaceOnUse">
<stop stop-color="#FFFDC7" stop-opacity="0"/>
<stop offset="0.369389" stop-color="#FFE3B5" stop-opacity="0.8"/>
<stop offset="0.828125" stop-color="#FFFEE1" stop-opacity="0"/>
</linearGradient>
</defs>
</svg>
