<svg width="24" height="24" viewBox="0 0 24 24" fill="none" xmlns="http://www.w3.org/2000/svg">
<path fill-rule="evenodd" clip-rule="evenodd" d="M17.3358 2.66416L7.58579 12.4142C7.21071 12.7892 7 13.298 7 13.8284V16C7 16.5522 7.44772 17 8 17H10.1716C10.702 17 11.2107 16.7893 11.5858 16.4142L21.3358 6.66416C22.1168 5.88311 22.1168 4.61678 21.3358 3.83573L20.1642 2.66416C19.3832 1.88311 18.1168 1.88311 17.3358 2.66416ZM10.5251 15.3535C10.4314 15.4473 10.3042 15.5 10.1716 15.5H8.5V13.8284C8.5 13.6958 8.55268 13.5686 8.64645 13.4748L18.3964 3.72482C18.5917 3.52955 18.9083 3.52956 19.1036 3.72482L20.2751 4.89639C20.4704 5.09165 20.4704 5.40824 20.2751 5.6035L10.5251 15.3535Z" fill="#252C3F"/>
<path d="M10 3.75C10 4.16422 9.66421 4.50001 9.25 4.50001H4C3.72386 4.50001 3.5 4.72386 3.5 5.00001V20.0001C3.5 20.2762 3.72386 20.5001 4 20.5001H19C19.2761 20.5001 19.5 20.2762 19.5 20.0001V14.7501C19.5 14.3358 19.8358 14.0001 20.25 14.0001C20.6642 14.0001 21 14.3358 21 14.7501V20.0001C21 21.1046 20.1046 22.0001 19 22.0001H4C2.89543 22.0001 2 21.1046 2 20.0001V5.00001C2 3.89544 2.89543 3 4 3H9.25C9.66421 3 10 3.33579 10 3.75Z" fill="#252C3F"/>
</svg>
