<svg width="26" height="24" viewBox="0 0 26 24" fill="none" xmlns="http://www.w3.org/2000/svg">
<path d="M13.0003 22C18.7277 22 23.3706 17.5228 23.3706 12C23.3706 6.47715 18.7277 2 13.0003 2C7.27286 2 2.62988 6.47715 2.62988 12C2.62988 17.5228 7.27286 22 13.0003 22Z" stroke="#252C3F" stroke-width="3" stroke-linecap="round" stroke-linejoin="round"/>
<path fill-rule="evenodd" clip-rule="evenodd" d="M12.9967 9.06791C11.96 7.8992 10.2312 7.58482 8.93232 8.65501C7.6334 9.72519 7.45053 11.5145 8.47058 12.7802C9.12392 13.5909 10.7972 15.0942 11.9158 16.0704C12.2875 16.3947 12.4733 16.5569 12.696 16.622C12.8874 16.6779 13.1061 16.6779 13.2974 16.622C13.5201 16.5569 13.7059 16.3947 14.0776 16.0704C15.1962 15.0942 16.8695 13.5909 17.5228 12.7802C18.5429 11.5145 18.3823 9.71393 17.0611 8.65501C15.7398 7.59608 14.0334 7.8992 12.9967 9.06791Z" stroke="#252C3F" stroke-width="3" stroke-linecap="round" stroke-linejoin="round"/>
</svg>
