<svg width="18" height="18" viewBox="0 0 18 18" fill="none" xmlns="http://www.w3.org/2000/svg">
<path d="M6.75 4.5V7.8759C6.75 8.2891 6.75 8.49569 6.69849 8.68714C6.65286 8.85677 6.57778 9.01706 6.47668 9.16072C6.36258 9.32285 6.20387 9.45511 5.88644 9.71963L3.11356 12.0304C2.79613 12.2949 2.63742 12.4272 2.52332 12.5893C2.42222 12.7329 2.34714 12.8932 2.30151 13.0629C2.25 13.2543 2.25 13.4609 2.25 13.8741V14.1C2.25 14.9401 2.25 15.3601 2.41349 15.681C2.5573 15.9632 2.78677 16.1927 3.06901 16.3365C3.38988 16.5 3.80992 16.5 4.65 16.5H13.35C14.1901 16.5 14.6101 16.5 14.931 16.3365C15.2132 16.1927 15.4427 15.9632 15.5865 15.681C15.75 15.3601 15.75 14.9401 15.75 14.1V13.8741C15.75 13.4609 15.75 13.2543 15.6985 13.0629C15.6529 12.8932 15.5778 12.7329 15.4767 12.5893C15.3626 12.4272 15.2039 12.2949 14.8864 12.0304L12.1136 9.71963C11.7961 9.45511 11.6374 9.32285 11.5233 9.16072C11.4222 9.01706 11.3471 8.85677 11.3015 8.68714C11.25 8.49569 11.25 8.2891 11.25 7.8759V4.5M6.225 4.5H11.775C11.985 4.5 12.09 4.5 12.1702 4.45913C12.2408 4.42317 12.2982 4.36581 12.3341 4.29525C12.375 4.21503 12.375 4.11002 12.375 3.9V2.1C12.375 1.88998 12.375 1.78497 12.3341 1.70475C12.2982 1.63419 12.2408 1.57683 12.1702 1.54087C12.09 1.5 11.985 1.5 11.775 1.5H6.225C6.01498 1.5 5.90997 1.5 5.82975 1.54087C5.75919 1.57683 5.70183 1.63419 5.66587 1.70475C5.625 1.78497 5.625 1.88998 5.625 2.1V3.9C5.625 4.11002 5.625 4.21503 5.66587 4.29525C5.70183 4.36581 5.75919 4.42317 5.82975 4.45913C5.90997 4.5 6.01498 4.5 6.225 4.5ZM4.125 12.75H13.875C14.2235 12.75 14.3977 12.75 14.5426 12.7788C15.1377 12.8972 15.6028 13.3623 15.7212 13.9574C15.75 14.1023 15.75 14.2765 15.75 14.625C15.75 14.9735 15.75 15.1477 15.7212 15.2926C15.6028 15.8877 15.1377 16.3528 14.5426 16.4712C14.3977 16.5 14.2235 16.5 13.875 16.5H4.125C3.77651 16.5 3.60226 16.5 3.45736 16.4712C2.86233 16.3528 2.39718 15.8877 2.27882 15.2926C2.25 15.1477 2.25 14.9735 2.25 14.625C2.25 14.2765 2.25 14.1023 2.27882 13.9574C2.39718 13.3623 2.86233 12.8972 3.45736 12.7788C3.60226 12.75 3.77651 12.75 4.125 12.75Z" stroke="#252C3F" stroke-width="1.5" stroke-linecap="round" stroke-linejoin="round"/>
</svg>
