<svg width="21" height="21" viewBox="0 0 21 21" fill="none" xmlns="http://www.w3.org/2000/svg">
<path d="M10.5 7.5C9.74052 7.5 9.01214 7.81607 8.4751 8.37868C7.93807 8.94129 7.63636 9.70435 7.63636 10.5C7.63636 11.2956 7.93807 12.0587 8.4751 12.6213C9.01214 13.1839 9.74052 13.5 10.5 13.5C11.2595 13.5 11.9879 13.1839 12.5249 12.6213C13.0619 12.0587 13.3636 11.2956 13.3636 10.5C13.3636 9.70435 13.0619 8.94129 12.5249 8.37868C11.9879 7.81607 11.2595 7.5 10.5 7.5ZM10.5 15.5C9.23419 15.5 8.02023 14.9732 7.12517 14.0355C6.23011 13.0979 5.72727 11.8261 5.72727 10.5C5.72727 9.17392 6.23011 7.90215 7.12517 6.96447C8.02023 6.02678 9.23419 5.5 10.5 5.5C11.7658 5.5 12.9798 6.02678 13.8748 6.96447C14.7699 7.90215 15.2727 9.17392 15.2727 10.5C15.2727 11.8261 14.7699 13.0979 13.8748 14.0355C12.9798 14.9732 11.7658 15.5 10.5 15.5ZM10.5 3C5.72727 3 1.65136 6.11 0 10.5C1.65136 14.89 5.72727 18 10.5 18C15.2727 18 19.3486 14.89 21 10.5C19.3486 6.11 15.2727 3 10.5 3Z" fill="#252C3F"/>
</svg>
