<svg width="21" height="21" viewBox="0 0 21 21" fill="none" xmlns="http://www.w3.org/2000/svg">
<path d="M10.3398 7.17447L13.346 10.1806L13.3603 10.0231C13.3603 8.44371 12.0767 7.16016 10.4973 7.16016L10.3398 7.17447Z" fill="#252C3F"/>
<path d="M10.4973 5.25153C13.1312 5.25153 15.2689 7.38924 15.2689 10.0232C15.2689 10.6387 15.1449 11.2256 14.9302 11.7648L17.7216 14.5562C19.1626 13.3538 20.2983 11.7982 20.9997 10.0232C19.344 5.8337 15.2737 2.86572 10.4973 2.86572C9.16125 2.86572 7.88248 3.10429 6.69434 3.53374L8.75569 5.5903C9.29482 5.38036 9.88174 5.25153 10.4973 5.25153Z" fill="#252C3F"/>
<path d="M0.954313 2.65085L3.13018 4.82672L3.56442 5.26095C1.98977 6.49204 0.744376 8.12873 0 10.023C1.651 14.2125 5.72597 17.1805 10.4976 17.1805C11.9769 17.1805 13.3892 16.8942 14.6824 16.3741L15.088 16.7797L17.8699 19.5663L19.0866 18.3543L2.17108 1.43408L0.954313 2.65085ZM6.23178 7.92353L7.70622 9.39797C7.66327 9.60316 7.63464 9.80832 7.63464 10.023C7.63464 11.6025 8.9182 12.886 10.4976 12.886C10.7124 12.886 10.9175 12.8574 11.118 12.8144L12.5924 14.2889C11.9577 14.6038 11.2516 14.7947 10.4976 14.7947C7.86368 14.7947 5.72597 12.657 5.72597 10.023C5.72597 9.26913 5.91685 8.56292 6.23178 7.92353Z" fill="#252C3F"/>
</svg>
