<svg width="18" height="19" viewBox="0 0 18 19" fill="none" xmlns="http://www.w3.org/2000/svg">
<path fill-rule="evenodd" clip-rule="evenodd" d="M0 9.31461C0 5.71947 0 3.9219 0.856692 2.62716C1.23925 2.04899 1.73439 1.55385 2.31255 1.1713C3.60729 0.314606 5.40486 0.314606 9 0.314606C12.5951 0.314606 14.3927 0.314606 15.6874 1.1713C16.2656 1.55385 16.7608 2.04899 17.1433 2.62716C18 3.9219 18 5.71947 18 9.31461C18 12.9097 18 14.7073 17.1433 16.0021C16.7608 16.5802 16.2656 17.0754 15.6874 17.4579C14.3927 18.3146 12.5951 18.3146 9 18.3146C5.40486 18.3146 3.60729 18.3146 2.31255 17.4579C1.73439 17.0754 1.23925 16.5802 0.856692 16.0021C0 14.7073 0 12.9097 0 9.31461ZM13.6593 9.31483C13.6593 11.8882 11.5732 13.9742 8.99984 13.9742C6.42652 13.9742 4.34043 11.8882 4.34043 9.31483C4.34043 6.74151 6.42652 4.65542 8.99984 4.65542C11.5732 4.65542 13.6593 6.74151 13.6593 9.31483ZM8.99984 12.3978C10.7025 12.3978 12.0828 11.0175 12.0828 9.31483C12.0828 7.61214 10.7025 6.23183 8.99984 6.23183C7.29714 6.23183 5.91684 7.61214 5.91684 9.31483C5.91684 11.0175 7.29714 12.3978 8.99984 12.3978ZM13.8433 5.51615C14.4479 5.51615 14.9381 5.02599 14.9381 4.42133C14.9381 3.81668 14.4479 3.32651 13.8433 3.32651C13.2386 3.32651 12.7485 3.81668 12.7485 4.42133C12.7485 5.02599 13.2386 5.51615 13.8433 5.51615Z" fill="#252C3F"/>
</svg>
