<svg width="18" height="18" viewBox="0 0 18 18" fill="none" xmlns="http://www.w3.org/2000/svg">
<path d="M0 2.73452C0 2.15731 0.202708 1.68112 0.608108 1.30595C1.01351 0.930764 1.54055 0.743179 2.18919 0.743179C2.82626 0.743179 3.34169 0.927872 3.73552 1.29729C4.14092 1.67824 4.34363 2.17462 4.34363 2.78647C4.34363 3.34058 4.14672 3.80233 3.7529 4.17175C3.3475 4.5527 2.81467 4.74318 2.15444 4.74318H2.13707C1.49999 4.74318 0.984562 4.5527 0.590734 4.17175C0.196905 3.7908 0 3.31172 0 2.73452ZM0.225869 17.886V6.31893H4.08301V17.886H0.225869ZM6.22008 17.886H10.0772V11.4272C10.0772 11.0231 10.1236 10.7114 10.2162 10.4921C10.3784 10.0996 10.6245 9.7677 10.9546 9.49642C11.2847 9.22513 11.6988 9.0895 12.1969 9.0895C13.4942 9.0895 14.1429 9.96106 14.1429 11.7042V17.886H18V11.254C18 9.54548 17.5946 8.24967 16.7838 7.36655C15.973 6.48344 14.9015 6.04188 13.5695 6.04188C12.0753 6.04188 10.9112 6.68257 10.0772 7.96396V7.99859H10.0598L10.0772 7.96396V6.31893H6.22008C6.24324 6.68834 6.25483 7.83696 6.25483 9.76482C6.25483 11.6927 6.24324 14.3997 6.22008 17.886Z" fill="#252C3F"/>
</svg>
