<svg width="24" height="24" viewBox="0 0 24 24" fill="none" xmlns="http://www.w3.org/2000/svg">
<mask id="path-1-inside-1_103_41" fill="white">
<path d="M8.06348 13.0947C9.64855 13.1751 10.9091 14.4858 10.9092 16.0908V21L10.9053 21.1543C10.8275 22.6883 9.59745 23.9183 8.06348 23.9961L7.90918 24H3L2.8457 23.9961C1.31169 23.9184 0.0816683 22.6883 0.00390625 21.1543L0 21V16.0908C4.81553e-05 14.434 1.34318 13.0908 3 13.0908H7.90918L8.06348 13.0947ZM18.5449 13.0908C21.5572 13.0908 23.9997 15.5327 24 18.5449L23.9932 18.8262C23.847 21.7081 21.4632 24 18.5449 24L18.2646 23.9932C15.3826 23.8471 13.0908 21.4632 13.0908 18.5449C13.0911 15.5329 15.5328 13.0911 18.5449 13.0908ZM18.5449 15.0908C16.6374 15.0911 15.0911 16.6374 15.0908 18.5449C15.0908 20.4527 16.6372 21.9998 18.5449 22C20.4528 22 22 20.4528 22 18.5449C21.9997 16.6373 20.4526 15.0908 18.5449 15.0908ZM3 15.0908C2.44775 15.0908 2.00005 15.5386 2 16.0908V21C2.00005 21.5522 2.44775 22 3 22H7.90918C8.46139 22 8.90913 21.5522 8.90918 21V16.0908C8.90913 15.5386 8.46139 15.0909 7.90918 15.0908H3ZM5.4541 0C8.46642 0 10.9089 2.44184 10.9092 5.4541L10.9023 5.73535C10.7562 8.61732 8.37239 10.9092 5.4541 10.9092L5.17383 10.9023C2.29182 10.7562 0 8.37242 0 5.4541C0.000239895 2.44199 2.44199 0.000239896 5.4541 0ZM21.1543 0.00390625C22.7394 0.0842589 24 1.39492 24 3V7.90918L23.9961 8.06348C23.9183 9.59745 22.6883 10.8275 21.1543 10.9053L21 10.9092H16.0908L15.9365 10.9053C14.4025 10.8275 13.1725 9.59745 13.0947 8.06348L13.0908 7.90918V3C13.0908 1.34318 14.434 4.81556e-05 16.0908 0H21L21.1543 0.00390625ZM5.4541 2C3.54656 2.00024 2.00024 3.54656 2 5.4541C2 7.36185 3.54641 8.90894 5.4541 8.90918C7.36199 8.90918 8.90918 7.36199 8.90918 5.4541C8.90894 3.54641 7.36185 2 5.4541 2ZM16.0908 2C15.5386 2.00005 15.0908 2.44775 15.0908 3V7.90918C15.0909 8.46139 15.5386 8.90913 16.0908 8.90918H21C21.5522 8.90913 22 8.46139 22 7.90918V3C22 2.44775 21.5522 2.00005 21 2H16.0908Z"/>
</mask>
<path d="M8.06348 13.0947C9.64855 13.1751 10.9091 14.4858 10.9092 16.0908V21L10.9053 21.1543C10.8275 22.6883 9.59745 23.9183 8.06348 23.9961L7.90918 24H3L2.8457 23.9961C1.31169 23.9184 0.0816683 22.6883 0.00390625 21.1543L0 21V16.0908C4.81553e-05 14.434 1.34318 13.0908 3 13.0908H7.90918L8.06348 13.0947ZM18.5449 13.0908C21.5572 13.0908 23.9997 15.5327 24 18.5449L23.9932 18.8262C23.847 21.7081 21.4632 24 18.5449 24L18.2646 23.9932C15.3826 23.8471 13.0908 21.4632 13.0908 18.5449C13.0911 15.5329 15.5328 13.0911 18.5449 13.0908ZM18.5449 15.0908C16.6374 15.0911 15.0911 16.6374 15.0908 18.5449C15.0908 20.4527 16.6372 21.9998 18.5449 22C20.4528 22 22 20.4528 22 18.5449C21.9997 16.6373 20.4526 15.0908 18.5449 15.0908ZM3 15.0908C2.44775 15.0908 2.00005 15.5386 2 16.0908V21C2.00005 21.5522 2.44775 22 3 22H7.90918C8.46139 22 8.90913 21.5522 8.90918 21V16.0908C8.90913 15.5386 8.46139 15.0909 7.90918 15.0908H3ZM5.4541 0C8.46642 0 10.9089 2.44184 10.9092 5.4541L10.9023 5.73535C10.7562 8.61732 8.37239 10.9092 5.4541 10.9092L5.17383 10.9023C2.29182 10.7562 0 8.37242 0 5.4541C0.000239895 2.44199 2.44199 0.000239896 5.4541 0ZM21.1543 0.00390625C22.7394 0.0842589 24 1.39492 24 3V7.90918L23.9961 8.06348C23.9183 9.59745 22.6883 10.8275 21.1543 10.9053L21 10.9092H16.0908L15.9365 10.9053C14.4025 10.8275 13.1725 9.59745 13.0947 8.06348L13.0908 7.90918V3C13.0908 1.34318 14.434 4.81556e-05 16.0908 0H21L21.1543 0.00390625ZM5.4541 2C3.54656 2.00024 2.00024 3.54656 2 5.4541C2 7.36185 3.54641 8.90894 5.4541 8.90918C7.36199 8.90918 8.90918 7.36199 8.90918 5.4541C8.90894 3.54641 7.36185 2 5.4541 2ZM16.0908 2C15.5386 2.00005 15.0908 2.44775 15.0908 3V7.90918C15.0909 8.46139 15.5386 8.90913 16.0908 8.90918H21C21.5522 8.90913 22 8.46139 22 7.90918V3C22 2.44775 21.5522 2.00005 21 2H16.0908Z" fill="#252C3F"/>
<path d="M8.06348 13.0947L8.1141 12.096L8.10145 12.0954L8.08879 12.095L8.06348 13.0947ZM10.9092 16.0908H11.9092V16.0908L10.9092 16.0908ZM10.9092 21L11.9089 21.0253L11.9092 21.0127V21H10.9092ZM10.9053 21.1543L11.904 21.2049L11.9046 21.1923L11.905 21.1796L10.9053 21.1543ZM8.06348 23.9961L8.08879 24.9958L8.10145 24.9955L8.1141 24.9948L8.06348 23.9961ZM7.90918 24V25H7.92184L7.93449 24.9997L7.90918 24ZM3 24L2.97469 24.9997L2.98734 25H3V24ZM2.8457 23.9961L2.7951 24.9948L2.80774 24.9955L2.82039 24.9958L2.8457 23.9961ZM0.00390625 21.1543L-0.995773 21.1796L-0.995453 21.1923L-0.994811 21.2049L0.00390625 21.1543ZM0 21H-1V21.0127L-0.99968 21.0253L0 21ZM0 16.0908L-1 16.0908V16.0908H0ZM3 13.0908V12.0908H3L3 13.0908ZM7.90918 13.0908L7.93449 12.0911L7.92184 12.0908H7.90918V13.0908ZM18.5449 13.0908V12.0908H18.5448L18.5449 13.0908ZM24 18.5449L24.9997 18.5692L25 18.557L25 18.5448L24 18.5449ZM23.9932 18.8262L24.9919 18.8768L24.9925 18.8636L24.9929 18.8505L23.9932 18.8262ZM18.5449 24L18.5205 24.9997L18.5327 25H18.5449V24ZM18.2646 23.9932L18.214 24.9919L18.2271 24.9925L18.2403 24.9929L18.2646 23.9932ZM13.0908 18.5449L12.0908 18.5448V18.5449H13.0908ZM18.5449 15.0908V14.0908H18.5448L18.5449 15.0908ZM15.0908 18.5449L14.0908 18.5448V18.5449H15.0908ZM18.5449 22L18.5448 23H18.5449V22ZM22 18.5449H23V18.5448L22 18.5449ZM3 15.0908V14.0908H3L3 15.0908ZM2 16.0908L1 16.0907V16.0908H2ZM2 21H1V21.0001L2 21ZM3 22L3 23H3V22ZM7.90918 22V23H7.90927L7.90918 22ZM8.90918 21L9.90918 21.0001V21H8.90918ZM8.90918 16.0908H9.90918V16.0907L8.90918 16.0908ZM7.90918 15.0908L7.90927 14.0908H7.90918V15.0908ZM5.4541 0V-1H5.45402L5.4541 0ZM10.9092 5.4541L11.9089 5.4784L11.9092 5.46621L11.9092 5.45402L10.9092 5.4541ZM10.9023 5.73535L11.9011 5.78599L11.9017 5.77283L11.902 5.75965L10.9023 5.73535ZM5.4541 10.9092L5.42972 11.9089L5.44191 11.9092H5.4541V10.9092ZM5.17383 10.9023L5.1232 11.9011L5.13632 11.9017L5.14945 11.902L5.17383 10.9023ZM0 5.4541L-1 5.45402V5.4541H0ZM21.1543 0.00390625L21.2049 -0.994811L21.1923 -0.995453L21.1796 -0.995773L21.1543 0.00390625ZM24 3H25V3L24 3ZM24 7.90918L24.9997 7.93449L25 7.92184V7.90918H24ZM23.9961 8.06348L24.9948 8.1141L24.9955 8.10145L24.9958 8.08879L23.9961 8.06348ZM21.1543 10.9053L21.1796 11.905L21.1923 11.9046L21.2049 11.904L21.1543 10.9053ZM21 10.9092V11.9092H21.0127L21.0253 11.9089L21 10.9092ZM16.0908 10.9092L16.0655 11.9089L16.0782 11.9092H16.0908V10.9092ZM15.9365 10.9053L15.8859 11.904L15.8986 11.9046L15.9112 11.905L15.9365 10.9053ZM13.0947 8.06348L12.095 8.08879L12.0954 8.10145L12.096 8.1141L13.0947 8.06348ZM13.0908 7.90918H12.0908V7.92184L12.0911 7.93449L13.0908 7.90918ZM13.0908 3L12.0908 3V3H13.0908ZM16.0908 0V-1H16.0908L16.0908 0ZM21 0L21.0253 -0.99968L21.0127 -1H21V0ZM5.4541 2V1H5.45398L5.4541 2ZM2 5.4541L1 5.45398V5.4541H2ZM5.4541 8.90918L5.45398 9.90918H5.4541V8.90918ZM8.90918 5.4541H9.90918V5.45398L8.90918 5.4541ZM16.0908 2V1H16.0907L16.0908 2ZM15.0908 3L14.0908 3V3H15.0908ZM15.0908 7.90918H14.0908V7.90927L15.0908 7.90918ZM16.0908 8.90918L16.0907 9.90918H16.0908V8.90918ZM21 8.90918V9.90918H21.0001L21 8.90918ZM22 7.90918L23 7.90927V7.90918H22ZM22 3H23V3L22 3ZM21 2L21.0001 1H21V2ZM8.06348 13.0947L8.01285 14.0934C9.06874 14.147 9.90915 15.0211 9.90918 16.0908L10.9092 16.0908L11.9092 16.0908C11.9091 13.9504 10.2284 12.2032 8.1141 12.096L8.06348 13.0947ZM10.9092 16.0908H9.90918V21H10.9092H11.9092V16.0908H10.9092ZM10.9092 21L9.9095 20.9747L9.90559 21.129L10.9053 21.1543L11.905 21.1796L11.9089 21.0253L10.9092 21ZM10.9053 21.1543L9.90656 21.1037C9.85478 22.1252 9.03435 22.9456 8.01285 22.9974L8.06348 23.9961L8.1141 24.9948C10.1605 24.8911 11.8003 23.2514 11.904 21.2049L10.9053 21.1543ZM8.06348 23.9961L8.03817 22.9964L7.88387 23.0003L7.90918 24L7.93449 24.9997L8.08879 24.9958L8.06348 23.9961ZM7.90918 24V23H3V24V25H7.90918V24ZM3 24L3.02531 23.0003L2.87101 22.9964L2.8457 23.9961L2.82039 24.9958L2.97469 24.9997L3 24ZM2.8457 23.9961L2.8963 22.9974C1.87481 22.9456 1.05441 22.1252 1.00262 21.1037L0.00390625 21.1543L-0.994811 21.2049C-0.891072 23.2514 0.748572 24.8911 2.7951 24.9948L2.8457 23.9961ZM0.00390625 21.1543L1.00359 21.129L0.99968 20.9747L0 21L-0.99968 21.0253L-0.995773 21.1796L0.00390625 21.1543ZM0 21H1V16.0908H0H-1V21H0ZM0 16.0908L1 16.0908C1.00003 14.9863 1.89549 14.0908 3 14.0908L3 13.0908L3 12.0908C0.790862 12.0908 -0.999936 13.8817 -1 16.0908L0 16.0908ZM3 13.0908V14.0908H7.90918V13.0908V12.0908H3V13.0908ZM7.90918 13.0908L7.88387 14.0905L8.03817 14.0944L8.06348 13.0947L8.08879 12.095L7.93449 12.0911L7.90918 13.0908ZM18.5449 13.0908V14.0908C21.0051 14.0908 22.9998 16.0851 23 18.545L24 18.5449L25 18.5448C24.9997 14.9803 22.1094 12.0908 18.5449 12.0908V13.0908ZM24 18.5449L23.0003 18.5206L22.9935 18.8019L23.9932 18.8262L24.9929 18.8505L24.9997 18.5692L24 18.5449ZM23.9932 18.8262L22.9944 18.7755C22.8752 21.1281 20.9281 23 18.5449 23V24V25C21.9984 25 24.8189 22.2882 24.9919 18.8768L23.9932 18.8262ZM18.5449 24L18.5693 23.0003L18.289 22.9935L18.2646 23.9932L18.2403 24.9929L18.5205 24.9997L18.5449 24ZM18.2646 23.9932L18.3153 22.9944C15.9627 22.8752 14.0908 20.9281 14.0908 18.5449H13.0908H12.0908C12.0908 21.9984 14.8026 24.8189 18.214 24.9919L18.2646 23.9932ZM13.0908 18.5449L14.0908 18.545C14.0911 16.0851 16.0852 14.091 18.545 14.0908L18.5449 13.0908L18.5448 12.0908C14.9805 12.0911 12.0912 14.9806 12.0908 18.5448L13.0908 18.5449ZM18.5449 15.0908L18.5448 14.0908C16.0851 14.0911 14.0912 16.0851 14.0908 18.5448L15.0908 18.5449L16.0908 18.5451C16.091 17.1897 17.1897 16.091 18.545 16.0908L18.5449 15.0908ZM15.0908 18.5449H14.0908C14.0908 21.0047 16.0847 22.9997 18.5448 23L18.5449 22L18.545 21C17.1898 20.9998 16.0908 19.9006 16.0908 18.5449H15.0908ZM18.5449 22V23C21.0051 23 23 21.0051 23 18.5449H22H21C21 19.9005 19.9005 21 18.5449 21V22ZM22 18.5449L23 18.5448C22.9996 16.0847 21.0047 14.0908 18.5449 14.0908V15.0908V16.0908C19.9006 16.0908 20.9998 17.1898 21 18.5451L22 18.5449ZM3 15.0908L3 14.0908C1.89537 14.0908 1.0001 14.9864 1 16.0907L2 16.0908L3 16.0909L3 16.0908L3 15.0908ZM2 16.0908H1V21H2H3V16.0908H2ZM2 21L1 21.0001C1.0001 22.1045 1.89537 23 3 23L3 22L3 21L3 20.9999L2 21ZM3 22V23H7.90918V22V21H3V22ZM7.90918 22L7.90927 23C9.0137 22.9999 9.90908 22.1045 9.90918 21.0001L8.90918 21L7.90918 20.9999L7.90909 21L7.90918 22ZM8.90918 21H9.90918V16.0908H8.90918H7.90918V21H8.90918ZM8.90918 16.0908L9.90918 16.0907C9.90908 14.9863 9.0137 14.0909 7.90927 14.0908L7.90918 15.0908L7.90909 16.0908L7.90918 16.0909L8.90918 16.0908ZM7.90918 15.0908V14.0908H3V15.0908V16.0908H7.90918V15.0908ZM5.4541 0V1C7.91429 1 9.90898 2.9943 9.90918 5.45418L10.9092 5.4541L11.9092 5.45402C11.9089 1.88939 9.01855 -1 5.4541 -1V0ZM10.9092 5.4541L9.90948 5.4298L9.90264 5.71105L10.9023 5.73535L11.902 5.75965L11.9089 5.4784L10.9092 5.4541ZM10.9023 5.73535L9.90363 5.68471C9.78433 8.03731 7.83724 9.90918 5.4541 9.90918V10.9092V11.9092C8.90754 11.9092 11.7281 9.19733 11.9011 5.78599L10.9023 5.73535ZM5.4541 10.9092L5.47848 9.90948L5.19821 9.90264L5.17383 10.9023L5.14945 11.902L5.42972 11.9089L5.4541 10.9092ZM5.17383 10.9023L5.22445 9.90363C2.87184 9.78437 1 7.83728 1 5.4541H0H-1C-1 8.90756 1.71179 11.7281 5.1232 11.9011L5.17383 10.9023ZM0 5.4541L1 5.45418C1.0002 2.99429 2.99429 1.0002 5.45418 1L5.4541 0L5.45402 -1C1.88969 -0.999716 -0.999716 1.88969 -1 5.45402L0 5.4541ZM21.1543 0.00390625L21.1037 1.00262C22.1596 1.05615 23 1.93029 23 3L24 3L25 3C25 0.859557 23.3192 -0.887634 21.2049 -0.994811L21.1543 0.00390625ZM24 3H23V7.90918H24H25V3H24ZM24 7.90918L23.0003 7.88387L22.9964 8.03817L23.9961 8.06348L24.9958 8.08879L24.9997 7.93449L24 7.90918ZM23.9961 8.06348L22.9974 8.01285C22.9456 9.03435 22.1252 9.85478 21.1037 9.90656L21.1543 10.9053L21.2049 11.904C23.2514 11.8003 24.8911 10.1605 24.9948 8.1141L23.9961 8.06348ZM21.1543 10.9053L21.129 9.90559L20.9747 9.9095L21 10.9092L21.0253 11.9089L21.1796 11.905L21.1543 10.9053ZM21 10.9092V9.90918H16.0908V10.9092V11.9092H21V10.9092ZM16.0908 10.9092L16.1161 9.9095L15.9618 9.90559L15.9365 10.9053L15.9112 11.905L16.0655 11.9089L16.0908 10.9092ZM15.9365 10.9053L15.9871 9.90656C14.9656 9.85478 14.1452 9.03435 14.0934 8.01285L13.0947 8.06348L12.096 8.1141C12.1997 10.1605 13.8395 11.8003 15.8859 11.904L15.9365 10.9053ZM13.0947 8.06348L14.0944 8.03817L14.0905 7.88387L13.0908 7.90918L12.0911 7.93449L12.095 8.08879L13.0947 8.06348ZM13.0908 7.90918H14.0908V3H13.0908H12.0908V7.90918H13.0908ZM13.0908 3L14.0908 3C14.0908 1.89549 14.9863 1.00003 16.0908 1L16.0908 0L16.0908 -1C13.8817 -0.999936 12.0908 0.790862 12.0908 3L13.0908 3ZM16.0908 0V1H21V0V-1H16.0908V0ZM21 0L20.9747 0.99968L21.129 1.00359L21.1543 0.00390625L21.1796 -0.995773L21.0253 -0.99968L21 0ZM5.4541 2L5.45398 1C2.99425 1.00031 1.00031 2.99425 1 5.45398L2 5.4541L3 5.45423C3.00017 4.09887 4.09887 3.00017 5.45423 3L5.4541 2ZM2 5.4541H1C1 7.91389 2.99386 9.90887 5.45398 9.90918L5.4541 8.90918L5.45423 7.90918C4.09897 7.90901 3 6.8098 3 5.4541H2ZM5.4541 8.90918V9.90918C7.91428 9.90918 9.90918 7.91428 9.90918 5.4541H8.90918H7.90918C7.90918 6.80971 6.80971 7.90918 5.4541 7.90918V8.90918ZM8.90918 5.4541L9.90918 5.45398C9.90887 2.99386 7.91389 1 5.4541 1V2V3C6.8098 3 7.90901 4.09897 7.90918 5.45423L8.90918 5.4541ZM16.0908 2L16.0907 1C14.9864 1.0001 14.0908 1.89537 14.0908 3L15.0908 3L16.0908 3L16.0909 3L16.0908 2ZM15.0908 3H14.0908V7.90918H15.0908H16.0908V3H15.0908ZM15.0908 7.90918L14.0908 7.90927C14.0909 9.0137 14.9863 9.90908 16.0907 9.90918L16.0908 8.90918L16.0909 7.90918L16.0908 7.90909L15.0908 7.90918ZM16.0908 8.90918V9.90918H21V8.90918V7.90918H16.0908V8.90918ZM21 8.90918L21.0001 9.90918C22.1045 9.90908 22.9999 9.0137 23 7.90927L22 7.90918L21 7.90909L20.9999 7.90918L21 8.90918ZM22 7.90918H23V3H22H21V7.90918H22ZM22 3L23 3C23 1.89537 22.1045 1.0001 21.0001 1L21 2L20.9999 3L21 3L22 3ZM21 2V1H16.0908V2V3H21V2Z" fill="#252C3F" mask="url(#path-1-inside-1_103_41)"/>
</svg>
