<svg width="36" height="37" viewBox="0 0 36 37" fill="none" xmlns="http://www.w3.org/2000/svg">
<rect x="0.5" y="0.814453" width="35" height="35" rx="7.5" fill="white" stroke="#252C3F"/>
<circle cx="18" cy="18.3145" r="10.5" fill="#252C3F"/>
<path d="M23.2399 13.971C23.3334 13.3669 22.7591 12.8901 22.2219 13.1259L11.5236 17.8231C11.1384 17.9922 11.1666 18.5756 11.5661 18.7029L13.7724 19.4055C14.1934 19.5396 14.6494 19.4702 15.0171 19.2162L19.9912 15.7797C20.1412 15.676 20.3047 15.8893 20.1766 16.0214L16.5961 19.7129C16.2488 20.071 16.3177 20.6778 16.7355 20.9398L20.7442 23.4537C21.1938 23.7356 21.7723 23.4524 21.8564 22.9091L23.2399 13.971Z" fill="white"/>
</svg>
