<svg width="589" height="34" viewBox="0 0 589 34" fill="none" xmlns="http://www.w3.org/2000/svg">
<path d="M74.1411 5.50429C83.4044 5.36436 90.8041 7.69967 95.1482 12.5274C98.4366 16.2154 102.179 16.8786 108.4 15.6076C124.376 12.3456 140.425 9.20308 156.57 6.28439C166.571 4.47411 175.499 5.59292 182.769 10.7634C184.519 11.9996 188.806 12.8468 191.515 12.5486C205.437 11.0024 219.239 9.00943 233.089 7.19518C248.654 5.16141 264.172 2.93411 279.858 1.22833C289.528 0.171946 298.641 2.54018 304.53 6.84958C313.105 13.103 323.685 12.9176 334.376 11.6046C354.539 9.14414 374.364 5.81875 394.48 3.22408C404.773 1.90696 415.361 0.964169 425.892 0.733646C430.71 0.621097 436.306 2.10578 440.485 3.81312C449.336 7.41122 459.171 7.26246 468.537 6.75235C494.5 5.33314 520.465 3.69123 546.142 1.1552C560.236 -0.240654 571.647 3.10225 583.509 6.10837C585.862 6.71236 588.908 9.878 588.154 10.7314C586.369 12.7471 582.873 14.6854 579.289 15.5089C576.252 16.2195 571.786 15.8456 568.566 15.0692C551.848 11.0168 535.573 14.4688 519.174 15.4394C498.999 16.6226 478.918 18.3117 458.722 19.1829C452.636 19.4454 445.02 18.7859 440.324 16.7167C427.472 11.0567 414.418 12.7457 401.115 14.4915C379.855 17.282 358.693 20.2814 337.482 23.1764C320.001 25.5613 304.702 23.5436 291.576 15.5343C288.764 13.8117 282.468 12.78 278.489 13.3024C259.319 15.7585 240.366 18.8258 221.34 21.7141C208.532 23.6433 195.958 26.8967 182.335 23.6641C180.651 23.2602 178.592 23.0603 177.358 22.3641C164.128 14.8587 151.101 18.731 137.855 22.0961C128.693 24.4202 119.481 26.7437 109.954 28.4104C97.9879 30.5119 88.93 27.6541 80.2452 20.0332C77.1946 17.3428 74.4998 16.2303 69.1799 16.8128C53.5934 18.4899 40.0657 22.7282 27.8631 28.4655C16.8081 33.6804 8.38033 34.6459 1.42319 30.3698C-0.155767 29.4027 -0.44247 25.984 0.980859 25.2268C17.7872 16.1817 49.4789 6.01644 74.1906 5.51963L74.1411 5.50429Z" fill="#B6DC9E"/>
</svg>
