<svg width="36" height="37" viewBox="0 0 36 37" fill="none" xmlns="http://www.w3.org/2000/svg">
<rect x="0.5" y="0.814453" width="35" height="35" rx="7.5" fill="white" stroke="#252C3F"/>
<path d="M26.0256 13.4347V15.9353C26.0256 15.9353 24.841 15.8889 23.9636 15.6658C22.7391 15.3537 21.9516 14.8752 21.9516 14.8752C21.9516 14.8752 21.4083 14.5339 21.3644 14.5097V21.1022C21.3644 21.4692 21.2638 22.3862 20.9574 23.1503C20.5574 24.1507 19.94 24.8072 19.8265 24.9414C19.8265 24.9414 19.0752 25.8287 17.751 26.4263C16.5574 26.9653 15.5091 26.9516 15.1953 26.9653C15.1953 26.9653 13.3835 27.0371 11.7525 25.9773L11.7443 25.9715C11.5721 25.8047 11.41 25.6286 11.2588 25.4441C10.7383 24.8095 10.4193 24.0591 10.3391 23.845C10.339 23.844 10.339 23.8431 10.3391 23.8422C10.2101 23.4701 9.93907 22.5765 9.9761 21.711C10.0416 20.184 10.5788 19.2467 10.7208 19.0119C11.097 18.3716 11.5862 17.7987 12.1667 17.3188C12.679 16.9046 13.2597 16.5751 13.8849 16.3437C14.5608 16.072 15.2846 15.9264 16.0174 15.9146V18.446C16.0174 18.446 14.6769 18.0208 13.6041 18.7736C12.8541 19.3306 12.4561 19.8739 12.3389 20.8444C12.334 21.5585 12.5167 22.5691 13.5191 23.2431C13.636 23.3172 13.7508 23.383 13.8633 23.4405C14.0385 23.6681 14.2516 23.8664 14.4941 24.0275C15.4733 24.6473 16.2937 24.6906 17.3428 24.288C18.0424 24.0189 18.569 23.4124 18.8132 22.7404C18.9666 22.3207 18.9645 21.8983 18.9645 21.4614V9.03467H21.4063C21.5072 9.60842 21.7864 10.4252 22.5246 11.2341C22.8207 11.5396 23.1543 11.8096 23.518 12.0384C23.6254 12.1495 24.1748 12.6991 24.8801 13.0365C25.2447 13.2109 25.6291 13.3445 26.0256 13.4347Z" fill="#252C3F"/>
<path d="M9.36719 23.0679V23.0698L9.42778 23.234C9.42082 23.2149 9.3983 23.1568 9.36719 23.0679Z" fill="#252C3F"/>
<path d="M13.8846 16.344C13.2594 16.5754 12.6787 16.9049 12.1664 17.3191C11.5857 17.8001 11.0966 18.3742 10.7209 19.0158C10.5789 19.2498 10.0417 20.1878 9.9762 21.7149C9.93917 22.5804 10.2102 23.4739 10.3392 23.846C10.3391 23.847 10.3391 23.8479 10.3392 23.8488C10.4206 24.061 10.7384 24.8114 11.2589 25.4479C11.4101 25.6325 11.5722 25.8085 11.7444 25.9753C11.1927 25.6095 10.7006 25.1674 10.2843 24.6632C9.76825 24.034 9.45001 23.2914 9.36699 23.0722C9.36689 23.0706 9.36689 23.0691 9.36699 23.0675V23.0648C9.23758 22.6931 8.96573 21.7991 9.00358 20.9324C9.0691 19.4054 9.60628 18.4681 9.74831 18.2333C10.1239 17.5917 10.613 17.0176 11.1938 16.5367C11.706 16.1223 12.2867 15.7928 12.912 15.5616C13.302 15.4065 13.7083 15.292 14.1239 15.2203C14.7502 15.1155 15.3898 15.1064 16.0191 15.1934V15.9149C15.2856 15.9264 14.5611 16.0721 13.8846 16.344Z" fill="#252C3F"/>
<path d="M21.4078 9.03476H18.9661V21.4619C18.9661 21.8987 18.9661 22.32 18.8147 22.7408C18.5681 23.4125 18.0435 24.019 17.3444 24.2881C16.2948 24.6922 15.4744 24.6474 14.4957 24.0276C14.2527 23.8673 14.0391 23.6696 13.8633 23.4425C14.6971 23.8688 15.4435 23.8614 16.3681 23.5057C17.0668 23.2366 17.5922 22.6301 17.838 21.958C17.9919 21.5383 17.9898 21.1159 17.9898 20.6795V8.25H21.3615C21.3615 8.25 21.3236 8.55891 21.4078 9.03476ZM26.0252 12.7433V13.4348C25.6293 13.3445 25.2456 13.2109 24.8816 13.0366C24.1764 12.6992 23.627 12.1496 23.5195 12.0385C23.6442 12.1169 23.7736 12.1883 23.907 12.2522C24.7644 12.6625 25.6089 12.785 26.0252 12.7433Z" fill="#252C3F"/>
</svg>
