<svg width="20" height="15" viewBox="0 0 20 15" fill="none" xmlns="http://www.w3.org/2000/svg">
<path d="M10.4383 14.2945L6.37607 14.2186C5.06083 14.1921 3.7423 14.2449 2.45285 13.9709C0.491281 13.5614 0.352317 11.5535 0.206906 9.86921C0.00654353 7.50137 0.0841097 5.09055 0.462219 2.74248C0.675674 1.42496 1.51571 0.638788 2.81479 0.553238C7.20014 0.242763 11.6146 0.279558 15.9903 0.424405C16.4524 0.437684 16.9177 0.51026 17.3734 0.592871C19.6227 0.995789 19.6775 3.27119 19.8233 5.18664C19.9688 7.12187 19.9074 9.06702 19.6294 10.9891C19.4065 12.5805 18.9798 13.915 17.1795 14.0438C14.9237 14.2123 12.7197 14.3479 10.4576 14.3048C10.4577 14.2945 10.4447 14.2945 10.4383 14.2945ZM8.05009 10.2655C9.74999 9.26813 11.4175 8.28734 13.1076 7.29662C11.4046 6.2992 9.74027 5.31841 8.05009 4.32769V10.2655Z" fill="#252C3F"/>
</svg>
