<svg width="335" height="403" viewBox="0 0 335 403" fill="none" xmlns="http://www.w3.org/2000/svg">
<foreignObject x="59.7891" y="-8.16455" width="283.721" height="324.165"><div xmlns="http://www.w3.org/1999/xhtml" style="backdrop-filter:blur(4.5px);clip-path:url(#bgblur_0_27_43_clip_path);height:100%;width:100%"></div></foreignObject><g filter="url(#filter0_ii_27_43)" data-figma-bg-blur-radius="9">
<path d="M142.886 38.9381C161.241 17.4888 187.208 4.00634 215.312 1.33407C279.234 -4.74406 334.51 45.5248 334.51 109.735L334.51 174.268C334.51 247.574 275.084 307 201.778 307C88.4285 307 27.2329 174.091 100.929 87.9693L142.886 38.9381Z" fill="url(#paint0_radial_27_43)"/>
<path d="M142.886 38.9381C161.241 17.4888 187.208 4.00634 215.312 1.33407C279.234 -4.74406 334.51 45.5248 334.51 109.735L334.51 174.268C334.51 247.574 275.084 307 201.778 307C88.4285 307 27.2329 174.091 100.929 87.9693L142.886 38.9381Z" fill="url(#paint1_linear_27_43)" fill-opacity="0.98"/>
</g>
<foreignObject x="-9" y="182" width="231" height="230"><div xmlns="http://www.w3.org/1999/xhtml" style="backdrop-filter:blur(4.5px);clip-path:url(#bgblur_1_27_43_clip_path);height:100%;width:100%"></div></foreignObject><g filter="url(#filter1_ii_27_43)" data-figma-bg-blur-radius="9">
<path d="M1.05141e-05 297C1.63208e-05 238.458 47.9578 191 106.5 191C165.042 191 213 238.458 213 297C213 355.542 165.042 403 106.5 403C47.9578 403 4.70731e-06 355.542 1.05141e-05 297Z" fill="url(#paint2_radial_27_43)" fill-opacity="0.2"/>
<path d="M1.05141e-05 297C1.63208e-05 238.458 47.9578 191 106.5 191C165.042 191 213 238.458 213 297C213 355.542 165.042 403 106.5 403C47.9578 403 4.70731e-06 355.542 1.05141e-05 297Z" fill="url(#paint3_linear_27_43)" fill-opacity="0.3"/>
</g>
<defs>
<filter id="filter0_ii_27_43" x="59.7891" y="-8.16455" width="283.721" height="324.165" filterUnits="userSpaceOnUse" color-interpolation-filters="sRGB">
<feFlood flood-opacity="0" result="BackgroundImageFix"/>
<feBlend mode="normal" in="SourceGraphic" in2="BackgroundImageFix" result="shape"/>
<feColorMatrix in="SourceAlpha" type="matrix" values="0 0 0 0 0 0 0 0 0 0 0 0 0 0 0 0 0 0 127 0" result="hardAlpha"/>
<feOffset/>
<feGaussianBlur stdDeviation="50"/>
<feComposite in2="hardAlpha" operator="arithmetic" k2="-1" k3="1"/>
<feColorMatrix type="matrix" values="0 0 0 0 0.968627 0 0 0 0 0.705882 0 0 0 0 0.819608 0 0 0 1 0"/>
<feBlend mode="normal" in2="shape" result="effect1_innerShadow_27_43"/>
<feColorMatrix in="SourceAlpha" type="matrix" values="0 0 0 0 0 0 0 0 0 0 0 0 0 0 0 0 0 0 127 0" result="hardAlpha"/>
<feOffset dy="4"/>
<feGaussianBlur stdDeviation="65"/>
<feComposite in2="hardAlpha" operator="arithmetic" k2="-1" k3="1"/>
<feColorMatrix type="matrix" values="0 0 0 0 0.898991 0 0 0 0 0.598025 0 0 0 0 0.728294 0 0 0 1 0"/>
<feBlend mode="normal" in2="effect1_innerShadow_27_43" result="effect2_innerShadow_27_43"/>
</filter>
<clipPath id="bgblur_0_27_43_clip_path" transform="translate(-59.7891 8.16455)"><path d="M142.886 38.9381C161.241 17.4888 187.208 4.00634 215.312 1.33407C279.234 -4.74406 334.51 45.5248 334.51 109.735L334.51 174.268C334.51 247.574 275.084 307 201.778 307C88.4285 307 27.2329 174.091 100.929 87.9693L142.886 38.9381Z"/>
</clipPath><filter id="filter1_ii_27_43" x="-9" y="182" width="231" height="230" filterUnits="userSpaceOnUse" color-interpolation-filters="sRGB">
<feFlood flood-opacity="0" result="BackgroundImageFix"/>
<feBlend mode="normal" in="SourceGraphic" in2="BackgroundImageFix" result="shape"/>
<feColorMatrix in="SourceAlpha" type="matrix" values="0 0 0 0 0 0 0 0 0 0 0 0 0 0 0 0 0 0 127 0" result="hardAlpha"/>
<feOffset/>
<feGaussianBlur stdDeviation="50"/>
<feComposite in2="hardAlpha" operator="arithmetic" k2="-1" k3="1"/>
<feColorMatrix type="matrix" values="0 0 0 0 0.968627 0 0 0 0 0.705882 0 0 0 0 0.819608 0 0 0 1 0"/>
<feBlend mode="normal" in2="shape" result="effect1_innerShadow_27_43"/>
<feColorMatrix in="SourceAlpha" type="matrix" values="0 0 0 0 0 0 0 0 0 0 0 0 0 0 0 0 0 0 127 0" result="hardAlpha"/>
<feOffset dy="4"/>
<feGaussianBlur stdDeviation="65"/>
<feComposite in2="hardAlpha" operator="arithmetic" k2="-1" k3="1"/>
<feColorMatrix type="matrix" values="0 0 0 0 0.898991 0 0 0 0 0.598025 0 0 0 0 0.728294 0 0 0 1 0"/>
<feBlend mode="normal" in2="effect1_innerShadow_27_43" result="effect2_innerShadow_27_43"/>
</filter>
<clipPath id="bgblur_1_27_43_clip_path" transform="translate(9 -182)"><path d="M1.05141e-05 297C1.63208e-05 238.458 47.9578 191 106.5 191C165.042 191 213 238.458 213 297C213 355.542 165.042 403 106.5 403C47.9578 403 4.70731e-06 355.542 1.05141e-05 297Z"/>
</clipPath><radialGradient id="paint0_radial_27_43" cx="0" cy="0" r="1" gradientUnits="userSpaceOnUse" gradientTransform="translate(173.41 260.528) scale(249.939 495.403)">
<stop stop-color="#F7B4D1" stop-opacity="0.37"/>
<stop offset="1" stop-color="white" stop-opacity="0.23"/>
</radialGradient>
<linearGradient id="paint1_linear_27_43" x1="156.133" y1="537.761" x2="456.095" y2="175.534" gradientUnits="userSpaceOnUse">
<stop stop-color="#FFFDC7" stop-opacity="0"/>
<stop offset="0.369389" stop-color="#FFFB9D"/>
<stop offset="0.828125" stop-color="#FFFEE1" stop-opacity="0"/>
</linearGradient>
<radialGradient id="paint2_radial_27_43" cx="0" cy="0" r="1" gradientUnits="userSpaceOnUse" gradientTransform="translate(106.5 265.852) rotate(-90) scale(170.679 200.091)">
<stop stop-color="#F7B4D1" stop-opacity="0.37"/>
<stop offset="1" stop-color="white" stop-opacity="0.1"/>
</radialGradient>
<linearGradient id="paint3_linear_27_43" x1="218.473" y1="277.651" x2="19.5613" y2="180.226" gradientUnits="userSpaceOnUse">
<stop stop-color="#FFFDC7" stop-opacity="0"/>
<stop offset="0.369389" stop-color="#FFFB9D"/>
<stop offset="0.828125" stop-color="#FFFEE1" stop-opacity="0"/>
</linearGradient>
</defs>
</svg>
